<svg width="2001" height="1834" viewBox="0 0 2001 1834" fill="none" xmlns="http://www.w3.org/2000/svg">
<g clip-path="url(#clip0_1138_4605)">
<mask id="mask0_1138_4605" style="mask-type:luminance" maskUnits="userSpaceOnUse" x="0" y="0" width="2001" height="1834">
<path d="M2000.14 0.660156H0.139648V1833.99H2000.14V0.660156Z" fill="white"/>
</mask>
<g mask="url(#mask0_1138_4605)">
<mask id="mask1_1138_4605" style="mask-type:luminance" maskUnits="userSpaceOnUse" x="0" y="0" width="2001" height="1834">
<path d="M0.139648 0.660156H2000.14V1833.99H0.139648V0.660156Z" fill="white"/>
</mask>
<g mask="url(#mask1_1138_4605)">
<path d="M1146.92 1312.77L844.805 1592.65L845.082 1626.1C867.417 1625.78 889.594 1619.83 909.359 1608.27L1649.36 1174.07C1667.84 1163.31 1677.15 1144.99 1678.12 1126.19H1678.28V1105.9L1146.92 1312.77Z" fill="#1C1E35"/>
<path d="M321.848 1294.3V1319.25H322.489C320.561 1335.64 327.47 1352.67 343.7 1362L779.518 1609.23C799.927 1620.8 822.584 1626.43 845.083 1626.11L845.473 1575.99L1146.93 1312.77L321.848 1294.3Z" fill="#1C1E35"/>
<g opacity="0.4">
<path d="M909.372 1691.04L1649.29 1256.88C1688.5 1233.87 1688.11 1177.04 1648.59 1154.57L1220.35 911.608C1190.01 894.359 1152.78 894.612 1122.69 912.27L343.211 1369.65C314.454 1386.52 314.737 1428.2 343.72 1444.68L779.497 1691.92C819.835 1714.86 869.349 1714.53 909.372 1691.04Z" fill="#9CA1B7"/>
</g>
<path d="M1146.92 1308.77L844.805 1588.65L845.082 1622.1C867.417 1621.78 889.594 1615.83 909.359 1604.27L1649.36 1170.07C1667.84 1159.31 1677.15 1140.99 1678.12 1122.19H1678.28V1101.9L1146.92 1308.77Z" fill="#BEC2CC"/>
<path d="M321.848 1290.3V1315.25H322.489C320.561 1331.64 327.47 1348.67 343.7 1357.99L779.518 1605.23C799.927 1616.8 822.584 1622.42 845.083 1622.1L845.473 1571.99L1146.93 1308.77L321.848 1290.3Z" fill="#9CA1B7"/>
<path d="M909.372 1573.74L1649.29 1139.58C1688.5 1116.57 1688.11 1059.74 1648.59 1037.27L1220.35 794.306C1190.01 777.057 1152.78 777.31 1122.69 794.969L343.211 1252.35C314.454 1269.22 314.737 1310.89 343.72 1327.38L779.497 1574.62C819.835 1597.56 869.349 1597.22 909.372 1573.74Z" fill="url(#paint0_linear_1138_4605)"/>
</g>
<mask id="mask2_1138_4605" style="mask-type:luminance" maskUnits="userSpaceOnUse" x="0" y="0" width="2001" height="1834">
<path d="M0.139648 0.660156H2000.14V1833.99H0.139648V0.660156Z" fill="white"/>
</mask>
<g mask="url(#mask2_1138_4605)">
<mask id="mask3_1138_4605" style="mask-type:luminance" maskUnits="userSpaceOnUse" x="429" y="787" width="5" height="9">
<path d="M429.581 787.469H433.366V795.176H429.581V787.469Z" fill="white"/>
</mask>
<g mask="url(#mask3_1138_4605)">
<path d="M433.363 792.957L429.603 795.159V789.676L433.363 787.474V792.957Z" fill="#F2F2F2"/>
<path d="M430.432 793.493L432.69 792.152C432.749 792.117 432.798 792.039 432.798 791.98C432.798 791.92 432.749 791.901 432.69 791.936L430.432 793.277C430.372 793.313 430.324 793.39 430.324 793.449C430.324 793.509 430.372 793.529 430.432 793.493Z" fill="#BEC6C6"/>
<path d="M430.432 794.013L432.69 792.672C432.749 792.637 432.798 792.559 432.798 792.5C432.798 792.44 432.749 792.421 432.69 792.456L430.432 793.797C430.372 793.833 430.324 793.91 430.324 793.969C430.324 794.029 430.372 794.049 430.432 794.013Z" fill="#BEC6C6"/>
<path d="M432.905 789.769C432.905 790.49 432.32 791.383 431.598 791.762C430.877 792.141 430.292 791.864 430.292 791.143C430.292 790.421 430.877 789.529 431.598 789.149C432.32 788.77 432.905 789.047 432.905 789.769Z" fill="#BEC6C6"/>
<path d="M432.389 790.487C432.44 790.568 432.46 790.825 432.465 790.985C432.512 790.919 432.556 790.85 432.597 790.781C432.479 790.497 432.181 790.242 432.181 790.242C432.181 790.242 432.315 790.372 432.389 790.487Z" fill="#9EA8A8"/>
<path d="M431.343 791.227C431.35 791.456 431.347 791.745 431.345 791.883C431.428 791.856 431.514 791.819 431.602 791.773C431.936 791.597 432.241 791.312 432.473 790.985C432.468 790.825 432.448 790.568 432.397 790.487C432.323 790.372 432.189 790.242 432.189 790.242C432.185 790.24 432.182 790.239 432.177 790.238C432.153 790.277 432.126 790.302 432.107 790.317C432.059 790.355 431.992 790.358 431.992 790.358L432.004 790.504C432.004 790.504 432.004 790.515 432.012 790.526C432.012 790.527 432.012 790.528 432.012 790.529C432.023 790.62 431.879 790.648 431.879 790.648L431.879 790.648C431.867 790.651 431.855 790.655 431.841 790.658C431.649 790.702 431.513 790.497 431.513 790.497C431.513 790.497 431.513 790.495 431.514 790.493C431.307 790.612 431.123 790.742 431.076 790.807C431.066 790.821 431.059 790.838 431.052 790.859C431.06 790.852 431.068 790.847 431.076 790.844C431.169 790.813 431.335 790.916 431.343 791.227Z" fill="#EFEFEF"/>
<path d="M431.841 790.665C431.855 790.662 431.867 790.659 431.879 790.655C431.879 790.654 431.897 790.466 431.827 790.391C431.757 790.316 431.724 790.242 431.724 790.242C431.724 790.242 431.742 790.257 431.805 790.313C431.869 790.369 431.992 790.365 431.992 790.365C431.992 790.365 432.059 790.362 432.107 790.324C432.126 790.309 432.153 790.285 432.177 790.245C432.214 790.186 432.249 790.092 432.253 789.943C432.253 789.916 432.253 789.891 432.252 789.867C432.249 789.765 432.234 789.691 432.215 789.639C432.214 789.689 432.191 789.765 432.073 789.825C431.878 789.924 431.811 789.906 431.811 789.906C431.811 789.906 431.85 789.988 431.811 790.009C431.772 790.03 431.758 790.105 431.758 790.105C431.758 790.105 431.713 789.864 431.636 789.864C431.56 789.864 431.542 789.924 431.614 790.021C431.687 790.119 431.623 790.249 431.568 790.242C431.557 790.241 431.54 790.232 431.518 790.218C431.541 790.348 431.518 790.477 431.514 790.5C431.513 790.502 431.513 790.504 431.513 790.504C431.513 790.504 431.649 790.709 431.841 790.665Z" fill="#FFBDBD"/>
<path d="M431.801 790.306C431.738 790.25 431.719 790.235 431.719 790.235C431.719 790.235 431.752 790.309 431.822 790.384C431.892 790.458 431.874 790.647 431.874 790.648V790.648C431.874 790.648 432.018 790.62 432.008 790.529C432.007 790.528 432.007 790.527 432.007 790.526C431.996 790.437 431.987 790.358 431.987 790.358C431.987 790.358 431.864 790.362 431.801 790.306Z" fill="#EAA2A2"/>
<path d="M432.131 789.39V789.39C432.049 789.288 431.902 789.239 431.688 789.243C431.367 789.249 431.33 789.524 431.33 789.524C431.33 789.524 431.231 789.588 431.269 789.825C431.3 790.013 431.437 790.162 431.519 790.218C431.54 790.232 431.557 790.24 431.568 790.242C431.623 790.248 431.687 790.118 431.614 790.021C431.542 789.924 431.56 789.864 431.636 789.864C431.713 789.864 431.758 790.104 431.758 790.104C431.758 790.104 431.772 790.03 431.811 790.009C431.85 789.987 431.811 789.906 431.811 789.906C431.811 789.906 431.878 789.924 432.073 789.825C432.191 789.765 432.214 789.689 432.215 789.638C432.234 789.691 432.249 789.765 432.252 789.867C432.279 789.826 432.311 789.757 432.317 789.655C432.328 789.474 432.131 789.39 432.131 789.39Z" fill="#3B3E5E"/>
<path d="M431.345 791.879C431.347 791.741 431.35 791.452 431.344 791.223C431.336 790.912 431.17 790.809 431.077 790.84C431.069 790.843 431.061 790.848 431.053 790.855C430.924 790.969 430.918 791.618 430.936 791.938C431.06 791.946 431.199 791.927 431.345 791.879Z" fill="#9EA8A8"/>
<path d="M430.737 792.446L430.792 792.525L430.915 792.469L430.826 792.61L430.847 792.721L430.737 792.728L430.626 792.853L430.647 792.717L430.558 792.683L430.681 792.591L430.737 792.446Z" fill="#BEC6C6"/>
<path d="M431.168 792.194L431.223 792.273L431.347 792.217L431.258 792.358L431.279 792.468L431.168 792.476L431.058 792.6L431.079 792.464L430.989 792.431L431.113 792.339L431.168 792.194Z" fill="#BEC6C6"/>
<path d="M431.595 791.934L431.651 792.013L431.774 791.957L431.685 792.097L431.706 792.208L431.595 792.216L431.485 792.34L431.506 792.204L431.416 792.17L431.54 792.079L431.595 791.934Z" fill="#BEC6C6"/>
<path d="M432.025 791.677L432.08 791.756L432.204 791.7L432.114 791.841L432.135 791.951L432.025 791.959L431.914 792.083L431.935 791.947L431.846 791.914L431.97 791.822L432.025 791.677Z" fill="#BEC6C6"/>
<path d="M432.454 791.42L432.51 791.499L432.633 791.444L432.544 791.584L432.565 791.695L432.454 791.703L432.344 791.827L432.365 791.691L432.275 791.657L432.399 791.565L432.454 791.42Z" fill="#BEC6C6"/>
</g>
<mask id="mask4_1138_4605" style="mask-type:luminance" maskUnits="userSpaceOnUse" x="325" y="558" width="225" height="457">
<path d="M325.353 558.151H549.336V1014.21H325.353V558.151Z" fill="white"/>
</mask>
<g mask="url(#mask4_1138_4605)">
<path d="M548.835 882.819L326.371 1013.14V688.684L548.835 558.364V882.819Z" fill="#F2F2F2"/>
<path d="M375.731 914.613L509.35 835.231C512.863 833.145 515.737 828.562 515.737 825.05C515.737 821.537 512.863 820.37 509.35 822.457L375.731 901.839C372.218 903.926 369.344 908.508 369.344 912.021C369.344 915.533 372.218 916.699 375.731 914.613Z" fill="#BEC6C6"/>
<path d="M375.731 945.379L509.35 865.997C512.863 863.91 515.737 859.328 515.737 855.815C515.737 852.302 512.863 851.136 509.35 853.223L375.731 932.605C372.218 934.691 369.344 939.273 369.344 942.786C369.344 946.299 372.218 947.466 375.731 945.379Z" fill="#BEC6C6"/>
<path d="M522.066 694.197C522.066 736.889 487.457 789.701 444.764 812.156C402.072 834.61 367.462 818.203 367.462 775.511C367.462 732.819 402.072 680.007 444.764 657.553C487.457 635.098 522.066 651.505 522.066 694.197Z" fill="#BFC5C2"/>
<path d="M491.45 736.636C494.484 741.384 495.629 756.493 495.93 765.883C498.7 761.978 501.293 757.971 503.688 753.894C496.728 737.206 479.244 722.197 479.244 722.197C479.244 722.197 487.099 729.829 491.45 736.636Z" fill="#9CA8A8"/>
<path d="M429.549 780.113C429.917 793.546 429.744 810.552 429.627 818.631C434.523 817.029 439.583 814.881 444.765 812.156C464.388 801.836 482.299 785.1 495.931 765.883C495.629 756.493 494.485 741.384 491.45 736.636C487.099 729.829 479.244 722.197 479.244 722.197C479.036 722.103 478.805 722.03 478.565 721.964C477.105 724.296 475.567 725.724 474.428 726.623C471.591 728.865 467.647 729.038 467.647 729.038L468.378 737.607C468.378 737.607 468.379 738.282 468.84 738.924C468.846 738.973 468.851 739.022 468.857 739.071C469.499 744.395 461.031 746.054 461.031 746.054L461.032 746.052C460.345 746.273 459.605 746.48 458.793 746.664C447.535 749.231 439.52 737.169 439.52 737.169C439.52 737.169 439.536 737.093 439.564 736.95C427.413 743.974 416.621 751.591 413.861 755.425C413.276 756.238 412.814 757.261 412.459 758.463C412.902 758.072 413.368 757.782 413.861 757.615C419.32 755.761 429.048 761.832 429.549 780.113Z" fill="#EFEFEF"/>
<path d="M458.793 746.664C459.605 746.479 460.344 746.273 461.031 746.051C461.037 745.996 462.094 734.93 457.98 730.549C453.855 726.156 451.89 721.791 451.89 721.791C451.89 721.791 453.002 722.664 456.707 725.956C460.412 729.249 467.647 729.037 467.647 729.037C467.647 729.037 471.591 728.864 474.428 726.623C475.567 725.724 477.105 724.295 478.565 721.964C480.741 718.486 482.741 712.995 482.976 704.227C483.019 702.645 483.011 701.169 482.969 699.775C482.789 693.764 481.887 689.432 480.751 686.338C480.738 689.293 479.361 693.747 472.414 697.284C460.975 703.107 457.024 702.067 457.024 702.067C457.024 702.067 459.312 706.85 457.024 708.099C454.737 709.347 453.905 713.714 453.905 713.714C453.905 713.714 451.285 699.574 446.772 699.573C442.258 699.572 441.2 703.1 445.472 708.822C449.745 714.545 445.983 722.174 442.769 721.791C442.111 721.713 441.08 721.218 439.842 720.371C441.159 728.026 439.827 735.588 439.563 736.95C439.536 737.092 439.519 737.17 439.519 737.17C439.519 737.17 447.535 749.23 458.793 746.664Z" fill="#FFBDBD"/>
<path d="M456.707 725.956C453.002 722.664 451.89 721.791 451.89 721.791C451.89 721.791 453.855 726.155 457.98 730.548C462.094 734.929 461.037 745.995 461.031 746.051V746.053C461.031 746.053 469.499 744.394 468.857 739.07C468.851 739.021 468.845 738.972 468.839 738.922C468.205 733.66 467.647 729.037 467.647 729.037C467.647 729.037 460.412 729.248 456.707 725.956Z" fill="#EAA2A2"/>
<path d="M475.862 671.728V671.728C471.041 665.746 462.349 662.873 449.802 663.095C430.934 663.429 428.741 679.607 428.741 679.607C428.741 679.607 422.917 683.35 425.205 697.284C427.024 708.368 435.026 717.077 439.842 720.372C441.08 721.218 442.111 721.713 442.768 721.792C445.982 722.174 449.745 714.545 445.472 708.823C441.2 703.101 442.258 699.572 446.772 699.573C451.285 699.574 453.905 713.713 453.905 713.713C453.905 713.713 454.737 709.346 457.024 708.098C459.312 706.85 457.024 702.067 457.024 702.067C457.024 702.067 460.976 703.107 472.414 697.284C479.361 693.747 480.738 689.293 480.751 686.338C481.887 689.433 482.788 693.765 482.969 699.775C484.533 697.372 486.411 693.304 486.764 687.302C487.388 676.695 475.862 671.728 475.862 671.728Z" fill="#3B3E5E"/>
<path d="M429.626 818.632C429.744 810.552 429.917 793.546 429.549 780.113C429.048 761.832 419.32 755.761 413.861 757.615C413.368 757.782 412.902 758.072 412.459 758.463C404.856 765.173 404.515 803.331 405.535 822.102C412.874 822.574 420.991 821.459 429.626 818.632Z" fill="#9CA8A8"/>
<path d="M393.688 852.661L396.933 857.303L404.199 854.017L398.943 862.282L400.185 868.779L393.688 869.244L387.191 876.537L388.426 868.563L383.17 866.579L390.436 861.182L393.688 852.661ZM419.102 837.482L422.347 842.123L429.613 838.838L424.357 847.102L425.599 853.599L419.102 854.065L412.598 861.358L413.84 853.383L408.584 851.4L415.85 846.003L419.102 837.482ZM444.509 822.302L447.761 826.944L455.027 823.658L449.765 831.923L451.006 838.413L444.509 838.878L438.012 846.178L439.254 838.204L433.998 836.22L441.264 830.823L444.509 822.302ZM469.923 807.123L473.175 811.764L480.434 808.479L475.179 816.743L476.42 823.233L469.923 823.699L463.426 830.999L464.668 823.024L459.412 821.041L466.671 815.644L469.923 807.123ZM495.337 791.937L498.582 796.585L505.848 793.299L500.592 801.564L501.834 808.054L495.337 808.519L488.84 815.819L490.081 807.845L484.819 805.861L492.085 800.464L495.337 791.937Z" fill="#BBC6C5"/>
</g>
<mask id="mask5_1138_4605" style="mask-type:luminance" maskUnits="userSpaceOnUse" x="593" y="108" width="375" height="762">
<path d="M593.733 108.455H967.35V869.192H593.733V108.455Z" fill="white"/>
</mask>
<g mask="url(#mask5_1138_4605)">
<path d="M966.515 650.023L595.43 867.404V326.191L966.515 108.81V650.023Z" fill="#F2F2F2"/>
<path d="M677.766 703.053L900.651 570.641C906.511 567.16 911.305 559.516 911.305 553.657C911.305 547.797 906.511 545.851 900.651 549.332L677.766 681.746C671.906 685.227 667.112 692.87 667.112 698.73C667.112 704.589 671.906 706.534 677.766 703.053Z" fill="#BEC6C6"/>
<path d="M677.766 754.372L900.651 621.959C906.511 618.478 911.305 610.834 911.305 604.975C911.305 599.115 906.511 597.171 900.651 600.651L677.766 733.064C671.906 736.545 667.112 744.188 667.112 750.048C667.112 755.907 671.906 757.853 677.766 754.372Z" fill="#BEC6C6"/>
<path d="M921.862 335.387C921.862 406.6 864.132 494.694 792.918 532.149C721.704 569.604 663.974 542.237 663.974 471.023C663.974 399.81 721.704 311.716 792.918 274.261C864.132 236.806 921.862 264.174 921.862 335.387Z" fill="#E85780"/>
<path d="M870.792 406.178C875.854 414.098 877.762 439.3 878.266 454.964C882.886 448.451 887.211 441.766 891.206 434.966C879.597 407.129 850.432 382.093 850.432 382.093C850.432 382.093 863.535 394.823 870.792 406.178Z" fill="#355AB3"/>
<path d="M767.537 478.699C768.152 501.107 767.864 529.474 767.668 542.951C775.834 540.277 784.276 536.695 792.918 532.15C825.65 514.934 855.527 487.018 878.266 454.963C877.763 439.299 875.855 414.097 870.793 406.177C863.535 394.822 850.432 382.092 850.432 382.092C850.085 381.936 849.7 381.813 849.299 381.704C846.864 385.593 844.299 387.976 842.399 389.476C837.666 393.214 831.088 393.503 831.088 393.503L832.307 407.798C832.307 407.798 832.308 408.923 833.077 409.993C833.087 410.075 833.096 410.157 833.106 410.24C834.176 419.12 820.052 421.887 820.052 421.887L820.053 421.884C818.907 422.253 817.673 422.597 816.319 422.905C797.539 427.186 784.17 407.067 784.17 407.067C784.17 407.067 784.197 406.939 784.243 406.701C763.974 418.417 745.973 431.123 741.369 437.518C740.394 438.874 739.623 440.581 739.031 442.586C739.769 441.934 740.547 441.45 741.369 441.171C750.476 438.078 766.702 448.205 767.537 478.699Z" fill="#EFEFEF"/>
<path d="M816.319 422.904C817.673 422.596 818.906 422.252 820.052 421.883C820.061 421.79 821.826 403.331 814.962 396.023C808.082 388.696 804.805 381.415 804.805 381.415C804.805 381.415 806.659 382.871 812.84 388.363C819.019 393.855 831.087 393.502 831.087 393.502C831.087 393.502 837.666 393.213 842.399 389.475C844.299 387.975 846.865 385.592 849.299 381.703C852.929 375.902 856.266 366.743 856.657 352.117C856.728 349.478 856.716 347.017 856.646 344.69C856.345 334.665 854.841 327.439 852.946 322.277C852.925 327.206 850.627 334.637 839.039 340.536C819.959 350.249 813.369 348.514 813.369 348.514C813.369 348.514 817.185 356.493 813.369 358.575C809.552 360.657 808.165 367.941 808.165 367.941C808.165 367.941 803.795 344.356 796.267 344.354C788.738 344.352 786.972 350.237 794.099 359.782C801.226 369.328 794.95 382.053 789.589 381.415C788.493 381.285 786.772 380.459 784.707 379.046C786.904 391.816 784.682 404.43 784.242 406.701C784.196 406.938 784.169 407.067 784.169 407.067C784.169 407.067 797.539 427.185 816.319 422.904Z" fill="#FFBDBD"/>
<path d="M812.84 388.363C806.659 382.871 804.805 381.415 804.805 381.415C804.805 381.415 808.082 388.696 814.962 396.023C821.826 403.331 820.061 421.79 820.052 421.883V421.887C820.052 421.887 834.176 419.119 833.106 410.239C833.096 410.156 833.086 410.074 833.076 409.992C832.018 401.214 831.087 393.502 831.087 393.502C831.087 393.502 819.019 393.855 812.84 388.363Z" fill="#EAA2A2"/>
<path d="M844.791 297.906V297.907C836.749 287.928 822.251 283.136 801.322 283.506C769.848 284.063 766.189 311.049 766.189 311.049C766.189 311.049 756.475 317.293 760.291 340.535C763.326 359.025 776.673 373.552 784.707 379.047C786.772 380.459 788.493 381.285 789.589 381.416C794.95 382.054 801.226 369.329 794.099 359.783C786.972 350.238 788.738 344.352 796.267 344.354C803.795 344.356 808.165 367.941 808.165 367.941C808.165 367.941 809.553 360.657 813.369 358.575C817.185 356.493 813.369 348.514 813.369 348.514C813.369 348.514 819.96 350.248 839.04 340.535C850.628 334.636 852.925 327.207 852.946 322.278C854.841 327.44 856.345 334.666 856.646 344.691C859.255 340.683 862.388 333.897 862.977 323.885C864.017 306.192 844.791 297.906 844.791 297.906Z" fill="#3B3E5E"/>
<path d="M767.667 542.951C767.862 529.474 768.152 501.107 767.537 478.699C766.702 448.205 750.476 438.078 741.369 441.171C740.547 441.45 739.769 441.934 739.031 442.585C726.348 453.779 725.779 517.429 727.48 548.74C739.723 549.526 753.262 547.667 767.667 542.951Z" fill="#355AB3"/>
<path d="M707.716 599.712L713.136 607.455L725.253 601.977L716.485 615.763L718.555 626.595L707.716 627.372L696.878 639.545L698.947 626.239L690.178 622.93L702.296 613.93L707.716 599.712Z" fill="#E3BA27"/>
<path d="M750.106 574.391L755.525 582.134L767.643 576.656L758.875 590.442L760.944 601.274L750.106 602.051L739.268 614.224L741.337 600.917L732.568 597.609L744.686 588.608L750.106 574.391Z" fill="#E3BA27"/>
<path d="M792.494 549.069L797.914 556.813L810.032 551.335L801.263 565.12L803.334 575.953L792.494 576.729L781.656 588.902L783.726 575.596L774.957 572.288L787.075 563.287L792.494 549.069Z" fill="#E3BA27"/>
<path d="M834.884 523.749L840.304 531.493L852.422 526.014L843.653 539.8L845.722 550.633L834.884 551.409L824.046 563.582L826.115 550.276L817.347 546.967L829.464 537.967L834.884 523.749Z" fill="#E3BA27"/>
<path d="M877.274 498.428L882.693 506.171L894.811 500.693L886.043 514.479L888.113 525.311L877.274 526.088L866.436 538.261L868.505 524.955L859.736 521.646L871.854 512.645L877.274 498.428Z" fill="#BEC6C6"/>
</g>
<mask id="mask6_1138_4605" style="mask-type:luminance" maskUnits="userSpaceOnUse" x="1001" y="161" width="218" height="444">
<path d="M1001.37 161.847H1218.91V604.804H1001.37V161.847Z" fill="white"/>
</mask>
<g mask="url(#mask6_1138_4605)">
<path d="M1218.43 477.188L1002.35 603.765V288.629L1218.43 162.053V477.188Z" fill="#F2F2F2"/>
<path d="M1050.3 508.067L1180.08 430.966C1183.49 428.939 1186.28 424.489 1186.28 421.077C1186.28 417.665 1183.49 416.532 1180.08 418.558L1050.3 495.66C1046.88 497.687 1044.09 502.137 1044.09 505.549C1044.09 508.961 1046.88 510.094 1050.3 508.067Z" fill="#BEC6C6"/>
<path d="M1050.3 537.949L1180.08 460.848C1183.49 458.821 1186.28 454.37 1186.28 450.958C1186.28 447.547 1183.49 446.414 1180.08 448.441L1050.3 525.542C1046.88 527.569 1044.09 532.019 1044.09 535.431C1044.09 538.843 1046.88 539.976 1050.3 537.949Z" fill="#BEC6C6"/>
<path d="M1192.43 293.983C1192.43 335.449 1158.81 386.744 1117.35 408.553C1075.88 430.362 1042.27 414.427 1042.27 372.961C1042.27 331.495 1075.88 280.201 1117.35 258.392C1158.81 236.582 1192.43 252.518 1192.43 293.983Z" fill="#BEC6C6"/>
<path d="M1162.69 335.203C1165.64 339.815 1166.75 354.489 1167.04 363.61C1169.73 359.817 1172.25 355.925 1174.58 351.965C1167.82 335.757 1150.84 321.179 1150.84 321.179C1150.84 321.179 1158.47 328.592 1162.69 335.203Z" fill="#9EA8A8"/>
<path d="M1102.57 377.43C1102.93 390.478 1102.76 406.995 1102.64 414.843C1107.4 413.286 1112.31 411.2 1117.35 408.553C1136.41 398.529 1153.8 382.274 1167.04 363.61C1166.75 354.489 1165.64 339.814 1162.69 335.203C1158.47 328.591 1150.84 321.179 1150.84 321.179C1150.63 321.088 1150.41 321.016 1150.18 320.953C1148.76 323.217 1147.26 324.604 1146.16 325.478C1143.4 327.655 1139.57 327.823 1139.57 327.823L1140.28 336.146C1140.28 336.146 1140.28 336.801 1140.73 337.425C1140.74 337.472 1140.74 337.52 1140.75 337.568C1141.37 342.739 1133.15 344.35 1133.15 344.35L1133.15 344.348C1132.48 344.563 1131.76 344.764 1130.97 344.943C1120.04 347.436 1112.25 335.721 1112.25 335.721C1112.25 335.721 1112.27 335.646 1112.3 335.508C1100.49 342.33 1090.01 349.728 1087.33 353.452C1086.76 354.241 1086.31 355.235 1085.97 356.402C1086.4 356.023 1086.85 355.741 1087.33 355.579C1092.63 353.778 1102.08 359.675 1102.57 377.43Z" fill="#EFEFEF"/>
<path d="M1130.97 344.943C1131.76 344.763 1132.48 344.563 1133.15 344.348C1133.15 344.294 1134.18 333.546 1130.18 329.29C1126.18 325.024 1124.27 320.784 1124.27 320.784C1124.27 320.784 1125.35 321.632 1128.95 324.83C1132.54 328.028 1139.57 327.823 1139.57 327.823C1139.57 327.823 1143.4 327.654 1146.16 325.477C1147.26 324.604 1148.76 323.217 1150.18 320.952C1152.29 317.574 1154.23 312.241 1154.46 303.725C1154.5 302.188 1154.49 300.755 1154.45 299.401C1154.28 293.563 1153.4 289.355 1152.3 286.35C1152.29 289.22 1150.95 293.546 1144.2 296.981C1133.09 302.637 1129.25 301.627 1129.25 301.627C1129.25 301.627 1131.48 306.273 1129.25 307.485C1127.03 308.697 1126.22 312.939 1126.22 312.939C1126.22 312.939 1123.68 299.206 1119.3 299.205C1114.91 299.203 1113.88 302.63 1118.03 308.188C1122.18 313.746 1118.53 321.156 1115.41 320.784C1114.77 320.708 1113.77 320.227 1112.57 319.405C1113.84 326.84 1112.55 334.185 1112.29 335.508C1112.27 335.646 1112.25 335.721 1112.25 335.721C1112.25 335.721 1120.04 347.435 1130.97 344.943Z" fill="#FFBDBD"/>
<path d="M1128.95 324.83C1125.35 321.632 1124.27 320.784 1124.27 320.784C1124.27 320.784 1126.18 325.024 1130.18 329.29C1134.18 333.545 1133.15 344.294 1133.15 344.347V344.35C1133.15 344.35 1141.37 342.738 1140.75 337.567C1140.74 337.52 1140.74 337.472 1140.73 337.424C1140.11 332.313 1139.57 327.822 1139.57 327.822C1139.57 327.822 1132.54 328.027 1128.95 324.83Z" fill="#EAA2A2"/>
<path d="M1147.55 272.159V272.16C1142.87 266.349 1134.43 263.559 1122.24 263.774C1103.91 264.099 1101.78 279.812 1101.78 279.812C1101.78 279.812 1096.13 283.447 1098.35 296.981C1100.12 307.747 1107.89 316.206 1112.57 319.406C1113.77 320.228 1114.77 320.709 1115.41 320.785C1118.53 321.157 1122.18 313.747 1118.03 308.189C1113.88 302.631 1114.91 299.203 1119.3 299.205C1123.68 299.206 1126.22 312.939 1126.22 312.939C1126.22 312.939 1127.03 308.697 1129.25 307.485C1131.48 306.273 1129.25 301.627 1129.25 301.627C1129.25 301.627 1133.09 302.637 1144.2 296.981C1150.95 293.546 1152.29 289.22 1152.3 286.35C1153.4 289.356 1154.28 293.563 1154.45 299.401C1155.97 297.067 1157.8 293.116 1158.14 287.286C1158.75 276.984 1147.55 272.159 1147.55 272.159Z" fill="#3B3E5E"/>
<path d="M1102.64 414.843C1102.76 406.996 1102.93 390.479 1102.57 377.431C1102.08 359.675 1092.63 353.778 1087.33 355.579C1086.85 355.742 1086.4 356.023 1085.97 356.403C1078.58 362.921 1078.25 399.983 1079.24 418.214C1086.37 418.672 1094.26 417.59 1102.64 414.843Z" fill="#9EA8A8"/>
<path d="M1067.74 447.894L1070.89 452.402L1077.95 449.213L1072.84 457.24L1074.05 463.547L1067.74 463.999L1061.42 471.087L1062.63 463.339L1057.52 461.413L1064.58 456.172L1067.74 447.894Z" fill="#BEC6C6"/>
<path d="M1092.42 433.149L1095.57 437.658L1102.63 434.468L1097.52 442.495L1098.73 448.803L1092.42 449.255L1086.11 456.343L1087.31 448.595L1082.21 446.669L1089.26 441.428L1092.42 433.149Z" fill="#BEC6C6"/>
<path d="M1117.1 418.405L1120.26 422.914L1127.31 419.724L1122.21 427.751L1123.41 434.059L1117.1 434.511L1110.79 441.599L1111.99 433.851L1106.89 431.925L1113.94 426.684L1117.1 418.405Z" fill="#BEC6C6"/>
<path d="M1141.78 403.662L1144.94 408.171L1151.99 404.981L1146.89 413.008L1148.09 419.316L1141.78 419.768L1135.47 426.856L1136.68 419.108L1131.57 417.182L1138.63 411.941L1141.78 403.662Z" fill="#BEC6C6"/>
<path d="M1166.46 388.918L1169.62 393.427L1176.68 390.237L1171.57 398.264L1172.78 404.572L1166.46 405.024L1160.15 412.112L1161.36 404.364L1156.25 402.437L1163.31 397.197L1166.46 388.918Z" fill="#BEC6C6"/>
</g>
</g>
<path d="M1286.77 382.278L1417.88 459.082V202.558L1286.77 125.754V382.278Z" fill="#F2F2F2"/>
<path d="M1391.69 325.451L1332.5 290.284C1330.43 289.054 1328.74 286.353 1328.74 284.283C1328.74 282.213 1330.43 281.525 1332.5 282.755L1391.69 317.922C1393.76 319.152 1395.46 321.853 1395.46 323.923C1395.46 325.993 1393.76 326.681 1391.69 325.451Z" fill="#BEC6C6"/>
<path d="M1391.69 344.565L1312.95 297.781C1310.88 296.551 1309.18 293.851 1309.18 291.781C1309.18 289.711 1310.88 289.023 1312.95 290.253L1391.69 337.037C1393.76 338.267 1395.46 340.967 1395.46 343.037C1395.46 345.107 1393.76 345.795 1391.69 344.565Z" fill="#BEC6C6"/>
<path d="M1391.69 363.679L1312.95 316.895C1310.88 315.665 1309.18 312.965 1309.18 310.895C1309.18 308.825 1310.88 308.137 1312.95 309.367L1391.69 356.151C1393.76 357.381 1395.46 360.081 1395.46 362.151C1395.46 364.221 1393.76 364.909 1391.69 363.679Z" fill="#BEC6C6"/>
<path d="M1391.69 382.794L1312.95 336.011C1310.88 334.781 1309.18 332.081 1309.18 330.011C1309.18 327.941 1310.88 327.253 1312.95 328.483L1391.69 375.266C1393.76 376.496 1395.46 379.196 1395.46 381.266C1395.46 383.336 1393.76 384.024 1391.69 382.794Z" fill="#BEC6C6"/>
<path d="M1375.86 392.5L1312.95 355.125C1310.88 353.895 1309.18 351.195 1309.18 349.125C1309.18 347.055 1310.88 346.367 1312.95 347.597L1375.86 384.972C1377.93 386.202 1379.62 388.902 1379.62 390.972C1379.62 393.042 1377.93 393.73 1375.86 392.5Z" fill="#BEC6C6"/>
<path d="M1324.82 257.206L1311.01 249.076V224.97L1324.82 233.099V257.206Z" fill="#E85780"/>
<path d="M1347.76 270.709L1333.95 262.58V206.336L1347.76 214.465V270.709Z" fill="#E85780"/>
<path d="M1370.69 284.211L1356.88 276.083V193.932L1370.69 202.06V284.211Z" fill="#E85780"/>
<path d="M1393.63 297.714L1379.82 289.585V243.009L1393.63 251.139V297.714Z" fill="#E85780"/>
<path d="M1469.83 468.43L1625.01 559.608V315.4L1469.83 224.222V468.43Z" fill="#F2F2F2"/>
<path d="M1600.09 375.936L1494.76 313.338C1492.79 312.167 1491.17 309.596 1491.17 307.625C1491.17 305.654 1492.79 305 1494.76 306.171L1600.09 368.769C1602.06 369.94 1603.67 372.511 1603.67 374.481C1603.67 376.452 1602.06 377.107 1600.09 375.936Z" fill="#BEC6C6"/>
<path d="M1600.09 394.133L1494.76 331.535C1492.79 330.364 1491.17 327.793 1491.17 325.822C1491.17 323.852 1492.79 323.198 1494.76 324.368L1600.09 386.967C1602.06 388.137 1603.67 390.709 1603.67 392.679C1603.67 394.65 1602.06 395.304 1600.09 394.133Z" fill="#BEC6C6"/>
<path d="M1600.09 412.331L1494.76 349.732C1492.79 348.562 1491.17 345.99 1491.17 344.02C1491.17 342.049 1492.79 341.395 1494.76 342.566L1600.09 405.164C1602.06 406.335 1603.67 408.905 1603.67 410.876C1603.67 412.847 1602.06 413.501 1600.09 412.331Z" fill="#BEC6C6"/>
<path d="M1572.72 335.799L1522.13 305.364C1519.37 303.702 1517.11 300.081 1517.11 297.318C1517.11 294.554 1519.37 293.654 1522.13 295.316L1572.72 325.751C1575.48 327.414 1577.74 331.034 1577.74 333.798C1577.74 336.561 1575.48 337.462 1572.72 335.799Z" fill="#BEC6C6"/>
<path d="M1549.79 458.5L1559.04 503.254L1569.3 491.253L1583.32 499.998L1574.06 455.245L1549.79 458.5Z" fill="#BEC6C6"/>
<path d="M1509.37 476.199L1542.76 453.641L1528.25 435.441L1494.87 457.999L1509.97 459.355L1509.37 476.199Z" fill="#BEC6C6"/>
<path d="M1576.72 448.875C1576.72 463.75 1564.66 468.74 1549.79 460.02C1534.91 451.3 1522.85 432.171 1522.85 417.296C1522.85 402.421 1534.91 397.431 1549.79 406.151C1564.66 414.871 1576.72 433.999 1576.72 448.875Z" fill="url(#paint1_linear_1138_4605)"/>
<path d="M1549.79 418.997L1553.95 429.999L1563.25 437.098L1556.52 439.503L1558.11 449.752L1549.79 440.236L1541.46 439.471L1543.05 431.185L1536.32 420.463L1545.62 424.858L1549.79 418.997Z" fill="white"/>
<path d="M1322.54 1003.11L1244.81 951.939L1262.31 927.87C1262.31 927.87 1278.21 924.588 1281.2 927.87C1284.19 931.152 1334.81 965.836 1334.81 965.836L1322.54 1003.11Z" fill="#6E7277"/>
<path d="M1268.91 1016.48C1268.91 1016.48 1262.47 1042.75 1279.37 1048.38C1289.27 1051.67 1298.49 1045.37 1298.49 1045.37L1338.6 1063.94L1263.08 1133.36C1263.08 1133.36 1259.06 1151.03 1275.74 1152.51C1292.42 1153.98 1300.76 1136.81 1300.76 1136.81C1300.76 1136.81 1362.23 1084.32 1372.95 1084.32C1383.67 1084.32 1433.22 1131.9 1433.22 1131.9C1433.22 1131.9 1435.18 1148.58 1455.3 1154.96C1475.41 1161.34 1481.04 1139.41 1478.32 1132.88C1475.6 1126.35 1410.65 1063.22 1410.65 1063.22L1461.67 1036.26C1461.67 1036.26 1473.94 1038.2 1487.18 1030.35C1500.43 1022.5 1491.77 1004.09 1491.77 1004.09L1379.75 1041.14L1326.27 1038.32L1306.12 1039.63L1268.91 1016.48Z" fill="#9297A5"/>
<path d="M1335.87 1067.65L1266.43 1124.79C1261.1 1129.18 1262.13 1137.62 1268.36 1140.61L1271.33 1142.03C1274.58 1143.59 1278.44 1143.15 1281.27 1140.91L1361.73 1077.21C1363.47 1075.82 1365.65 1075.1 1367.88 1075.17L1381.08 1075.57C1383.23 1075.64 1385.29 1076.44 1386.92 1077.83L1460.78 1140.93C1463.41 1143.17 1467.06 1143.8 1470.29 1142.57L1472.26 1141.82C1478.62 1139.38 1480.39 1131.21 1475.6 1126.35L1417.99 1067.99C1414.87 1064.83 1414.37 1059.94 1416.78 1056.22L1422.16 1047.89C1423.09 1046.46 1424.38 1045.31 1425.9 1044.56L1486.7 1014.36C1493.05 1011.21 1493.8 1002.45 1488.07 998.27L1483.39 994.853C1480.63 992.839 1477 992.47 1473.9 993.888L1417.61 1019.57C1416.71 1019.98 1393.14 1028.32 1392.16 1028.43L1368.09 1034.51C1366.42 1034.71 1341.36 1028.47 1339.82 1027.79L1285.61 1005.63C1282.29 1004.17 1278.43 1004.73 1275.67 1007.07L1272.2 1010.02C1266.88 1014.54 1268.14 1023.08 1274.53 1025.88L1332.29 1049.3C1334.16 1050.12 1335.71 1051.52 1336.72 1053.28L1338.08 1055.67C1340.35 1059.67 1339.42 1064.72 1335.87 1067.65Z" fill="url(#paint2_linear_1138_4605)"/>
<path d="M1407.77 1046.81V1054.06C1407.77 1063.99 1395.96 1072.05 1381.37 1072.05C1366.79 1072.05 1354.97 1063.99 1354.97 1054.06V1046.81H1355.1C1356.4 1055.94 1367.65 1063.06 1381.37 1063.06C1395.1 1063.06 1406.35 1055.94 1407.65 1046.81H1407.77Z" fill="url(#paint3_linear_1138_4605)"/>
<path d="M1407.77 1045.06C1407.77 1045.65 1407.74 1046.23 1407.65 1046.81C1406.35 1055.94 1395.1 1063.05 1381.37 1063.05C1367.65 1063.05 1356.4 1055.94 1355.1 1046.81C1355.01 1046.23 1354.98 1045.65 1354.98 1045.06C1354.98 1035.13 1366.79 1027.08 1381.37 1027.08C1395.96 1027.08 1407.77 1035.13 1407.77 1045.06Z" fill="#ADB1BC"/>
<path d="M1394.66 993.035V1043.83C1394.66 1048.83 1388.71 1052.88 1381.37 1052.88C1374.03 1052.88 1368.09 1048.83 1368.09 1043.83V993.035H1368.15C1368.81 997.624 1374.47 1001.21 1381.37 1001.21C1388.28 1001.21 1393.94 997.624 1394.59 993.035H1394.66Z" fill="url(#paint4_linear_1138_4605)"/>
<path d="M1394.66 992.15C1394.66 992.451 1394.64 992.743 1394.59 993.035C1393.94 997.624 1388.28 1001.21 1381.37 1001.21C1374.47 1001.21 1368.81 997.624 1368.15 993.035C1368.11 992.743 1368.09 992.451 1368.09 992.15C1368.09 987.154 1374.03 983.104 1381.37 983.104C1388.71 983.104 1394.66 987.154 1394.66 992.15Z" fill="#ADB1BC"/>
<path d="M1407.77 943.615V985.428C1407.77 995.358 1395.96 1003.41 1381.37 1003.41C1366.79 1003.41 1354.98 995.358 1354.98 985.428V943.615H1355.1C1356.4 952.737 1367.65 959.855 1381.37 959.855C1395.1 959.855 1406.35 952.737 1407.65 943.615H1407.77Z" fill="url(#paint5_linear_1138_4605)"/>
<path d="M1407.77 941.858C1407.77 942.456 1407.74 943.036 1407.65 943.616C1406.35 952.738 1395.1 959.856 1381.37 959.856C1367.65 959.856 1356.4 952.738 1355.1 943.616C1355.01 943.036 1354.98 942.456 1354.98 941.858C1354.98 931.928 1366.79 923.878 1381.37 923.878C1395.96 923.878 1407.77 931.928 1407.77 941.858Z" fill="#ADB1BC"/>
<path d="M1374.17 586.328L1509.42 661.181C1516.73 665.283 1520.65 673.567 1519.18 681.824L1487.78 864.658C1484 885.832 1471.81 904.577 1453.99 916.618L1322.54 1003.11V965.835L1374.17 586.328Z" fill="url(#paint6_linear_1138_4605)"/>
<path d="M1370.11 607.096L1480.46 668.976C1487.78 673.079 1491.7 681.363 1490.22 689.62L1462.85 843.151C1459.08 864.326 1446.89 883.07 1429.07 895.111L1322.54 965.835L1189.02 888.105L1370.11 607.096Z" fill="#2D2F4F"/>
<path d="M1202.59 718.814C1202.59 718.814 1175.22 708.451 1170.95 709.417C1166.68 710.383 1160.85 716.911 1160.85 716.911C1160.85 716.911 1159.45 720.246 1160.27 722.914C1161.19 725.891 1160.38 725.235 1162.83 727.137C1165.28 729.039 1174.66 756.985 1177.18 759.987C1179.7 762.99 1207.48 751.704 1207.48 751.704L1202.59 718.814Z" fill="#FFBDBD"/>
<path d="M1301.45 598.419C1301.45 598.419 1283.02 683.184 1279.68 687.163C1278.02 689.147 1281.96 708.908 1294.31 719.272C1305.55 728.7 1319.95 726.051 1322.3 721.225C1326.98 711.597 1364.35 620.605 1364.35 620.605C1364.35 620.605 1369.41 598.66 1339.84 585.159C1314.51 573.596 1301.45 598.419 1301.45 598.419Z" fill="#355AB3"/>
<path d="M1284.13 684.589C1280.15 687.928 1206.57 714.374 1206.57 714.374C1206.57 714.374 1193.41 725.964 1198.27 738.832C1203.14 751.701 1209.96 752.759 1209.96 752.759C1209.96 752.759 1313.89 734.201 1320.18 725.533C1323.32 721.2 1330.5 711.625 1316.78 695.283C1303.07 678.941 1286.12 682.92 1284.13 684.589Z" fill="#355AB3"/>
<path d="M1292.22 780.301C1292.22 780.301 1146.09 792.499 1133.83 812.769C1121.56 833.039 1158.9 883.182 1178.1 923.188C1197.3 963.195 1219.96 995.515 1219.96 995.515C1219.96 995.515 1224.4 998.671 1234.85 987.067C1245.31 975.464 1250.56 962.609 1250.56 962.609L1209.94 857.091L1400.06 831.022C1400.06 831.022 1321.52 813.977 1292.22 780.301Z" fill="#2D2F4F"/>
<path d="M1223.9 995.521C1223.9 995.521 1222.99 1013.3 1208.49 1030.43C1193.98 1047.56 1191.05 1053.13 1203.67 1060.18C1216.29 1067.22 1230.31 1062.82 1244.65 1039.34C1258.98 1015.85 1285.39 1002.29 1280.64 987.788C1275.88 973.288 1249.37 965.257 1249.37 965.257C1249.37 965.257 1238.26 984.583 1223.9 995.521Z" fill="#2D2F4F"/>
<path d="M1425.83 811.943C1425.83 811.943 1453.68 854.251 1397.21 882.944C1340.73 911.638 1276.36 941.64 1276.36 941.64C1276.36 941.64 1288.28 964.402 1286.45 1012.41C1284.62 1060.42 1285.76 1097.2 1285.76 1097.2C1285.76 1097.2 1291.03 1109.43 1266.8 1109.31C1242.57 1109.19 1241.6 1104.42 1241.6 1104.42C1241.6 1104.42 1231.23 992.164 1222.87 958.535C1214.51 924.906 1205.65 895.574 1219.96 873.894C1234.28 852.215 1327.77 809.155 1327.77 809.155C1327.77 809.155 1387.4 832.072 1425.83 811.943Z" fill="#45496D"/>
<path d="M1331.41 575.467C1331.41 575.467 1318.25 588.245 1310.97 599.644C1303.68 611.043 1302.9 658.118 1303.46 661.48C1304.02 664.842 1298.48 786.614 1298.48 786.614C1298.48 786.614 1311.6 811.335 1359.76 818.922C1408.57 826.612 1432.97 815.524 1432.97 815.524C1432.97 815.524 1416.92 780.258 1427.56 741.033C1438.21 701.807 1451.53 645.896 1440.89 631.105C1430.24 616.314 1348.22 567.905 1331.41 575.467Z" fill="#EFEFEF"/>
<path d="M1152.61 667.143L1298.94 750.666L1298.94 876.346L1152.61 792.823L1146.8 669.992L1152.61 667.143Z" fill="#C6C6C6"/>
<path d="M1146.8 669.991L1293.13 753.514V879.195L1146.8 795.672V669.991Z" fill="#EFEFEF"/>
<path d="M1293.13 879.195L1383.98 818.631L1293.13 765.417L1293.13 879.195Z" fill="#B2B1B1"/>
<path d="M1383.98 818.631V824.959L1293.13 879.194L1293.13 753.514L1298.94 750.666V870.603L1383.98 818.631Z" fill="#C6C6C6"/>
<path d="M1298.94 802.221L1334.81 824.198L1298.94 844.976V802.221Z" fill="#827F7F"/>
<path d="M1440.89 634.773C1431.74 631.669 1415.46 641.835 1414.62 672.446C1413.78 703.056 1414.62 744.779 1414.62 744.779C1414.62 744.779 1417.5 760.463 1426.14 765.324C1435.9 770.812 1451.64 765.25 1453.2 759.245C1456.13 747.924 1459.61 641.129 1440.89 634.773Z" fill="#355AB3"/>
<path d="M1414.62 744.78L1344.59 790.276C1344.59 790.276 1359.27 791.533 1363.88 801.597C1368.49 811.661 1369.33 815.527 1369.33 815.527C1369.33 815.527 1450.26 770.568 1453.19 759.246C1454.82 752.993 1451.39 743.029 1440.8 739.324C1427.47 734.657 1414.62 744.78 1414.62 744.78Z" fill="#355AB3"/>
<path d="M1350.73 791.565C1350.73 791.565 1334.35 799.794 1323.48 806.897C1312.62 814 1307.6 830.296 1308.02 831.967C1308.44 833.639 1321.35 843.249 1325.34 843.249C1329.33 843.249 1339.78 828.207 1348.13 823.193C1356.49 818.179 1366.43 807.428 1366.43 807.428C1366.43 807.428 1367.52 794.618 1350.73 791.565Z" fill="#FFBDBD"/>
<path d="M1352.88 588.771L1350.08 604.8C1350.08 604.8 1347.97 616.048 1367.72 620.55C1387.47 625.051 1401.52 603.896 1401.52 603.896C1401.52 603.896 1398.04 587.562 1401.44 571.922C1404.84 556.281 1352.88 588.771 1352.88 588.771Z" fill="#FFBDBD"/>
<path d="M1352.34 588.411C1352.34 588.411 1364.88 590.004 1371.38 584.229C1377.88 578.454 1379.83 576.923 1379.83 576.923C1379.83 576.923 1376.38 584.579 1369.14 592.284C1361.91 599.989 1363.79 619.48 1363.79 619.48C1363.79 619.48 1348.94 616.569 1350.07 607.231C1351.19 597.894 1352.34 588.411 1352.34 588.411Z" fill="#EAA2A2"/>
<path d="M1327.5 517.126C1327.5 517.126 1325.66 543.263 1327.35 552.204C1329.05 561.145 1339.03 586.7 1344.61 589.708C1350.2 592.715 1357.59 590.845 1357.59 590.845C1357.59 590.845 1372.12 592.061 1381.7 575.113C1385.69 568.042 1402.27 571.434 1402.49 565.819C1403.13 549.826 1399.76 510.263 1382.57 504.275C1365.38 498.288 1327.5 517.126 1327.5 517.126Z" fill="#FFBDBD"/>
<path d="M1343 524.38C1363.4 526.462 1373.49 520.404 1373.49 520.404C1373.49 520.404 1368.36 529.269 1374.24 534.231C1380.13 539.192 1377.96 560.053 1380.94 560.086C1383.91 560.119 1382.88 541.353 1391.81 541.527C1400.73 541.701 1398.04 546.8 1397.12 554.114C1396.2 561.429 1394.15 566.164 1401.18 568.091C1408.22 570.018 1423.33 550.373 1423.26 530.896C1423.19 511.418 1410.63 505.169 1410.63 505.169C1410.63 505.169 1415.86 480.12 1380.27 481.402C1344.68 482.684 1331.6 490.992 1321.67 484.6C1311.75 478.207 1300.83 520.078 1343 524.38Z" fill="#2D2F4F"/>
<path d="M1358.2 545.578C1358.27 546.874 1359.38 547.867 1360.68 547.796C1361.97 547.726 1362.97 546.618 1362.89 545.321C1362.82 544.025 1361.72 543.032 1360.42 543.103C1359.12 543.174 1358.13 544.282 1358.2 545.578Z" fill="#2D2F4F"/>
<path d="M1330.41 544.25C1330.48 545.546 1331.59 546.539 1332.88 546.469C1334.18 546.398 1335.17 545.29 1335.1 543.994C1335.03 542.698 1333.92 541.704 1332.63 541.775C1331.33 541.846 1330.34 542.954 1330.41 544.25Z" fill="#2D2F4F"/>
<path d="M1361.82 568.844C1361.82 568.844 1352.74 573.446 1346.47 572.42C1340.19 571.394 1337.68 568.085 1337.68 568.085C1337.68 568.085 1339.19 575.874 1347.11 577.335C1355.02 578.795 1361.82 568.844 1361.82 568.844Z" fill="white"/>
<path d="M1341.88 563.238C1341.97 563.233 1342.05 563.227 1342.14 563.22C1346.61 562.846 1348.18 562.89 1348.18 562.89L1348.23 561.725C1348.16 561.724 1346.6 561.679 1342.05 562.057C1340.99 562.145 1339.63 562.058 1339.14 561.152C1338.6 560.141 1339.25 558.245 1340.78 556.321C1343.74 552.591 1343.69 546.196 1343.68 545.926L1342.51 545.943C1342.51 546.006 1342.57 552.193 1339.87 555.594C1337.99 557.953 1337.33 560.237 1338.11 561.702C1338.53 562.483 1339.52 563.366 1341.88 563.238Z" fill="#DD9292"/>
<path d="M1353.63 547.705C1354.04 553.82 1359.34 558.443 1365.45 558.03C1371.57 557.618 1376.19 552.325 1375.78 546.21C1375.36 540.095 1370.07 535.472 1363.96 535.884C1357.84 536.297 1353.22 541.59 1353.63 547.705Z" stroke="#2D2F4F" stroke-width="3" stroke-miterlimit="10"/>
<path d="M1321.23 545.023C1321.65 551.138 1326.94 555.762 1333.05 555.349C1339.17 554.936 1343.79 549.644 1343.38 543.528C1342.97 537.413 1337.67 532.79 1331.56 533.203C1325.44 533.615 1320.82 538.908 1321.23 545.023Z" stroke="#2D2F4F" stroke-width="3" stroke-miterlimit="10"/>
<path d="M1354.21 543.327C1354.21 543.327 1348.88 536.507 1342.91 541.014" stroke="#2D2F4F" stroke-width="3" stroke-miterlimit="10"/>
<path d="M1285.52 1103.01C1285.52 1103.01 1294.97 1121.53 1291.15 1126.52C1287.33 1131.51 1251.06 1151.17 1241.6 1162.62C1232.15 1174.07 1213.65 1172.9 1203.67 1164.68C1193.69 1156.46 1194.39 1149.41 1212.39 1135.03C1230.39 1120.64 1241.6 1104.41 1241.6 1104.41C1241.6 1104.41 1266.65 1115.56 1285.52 1103.01Z" fill="#2D2F4F"/>
<g opacity="0.16">
<path d="M1280.77 1236.61L920.857 1028.15C909.149 1021.33 894.672 1021.36 882.994 1028.23L674.296 1151C663.311 1157.47 663.346 1173.36 674.358 1179.78L1033.9 1388.03C1047.34 1395.85 1063.94 1395.82 1077.34 1387.93L1280.84 1268.22C1292.9 1261.12 1292.87 1243.66 1280.77 1236.61Z" fill="#2D2F4F"/>
</g>
<path d="M1047.37 1153.49V1390.41L1056.41 1385.89L1064.55 1153.49H1047.37Z" fill="url(#paint7_linear_1138_4605)"/>
<path d="M1272.61 1018.56V1255.48L1281.66 1250.96L1289.79 1018.56H1272.61Z" fill="url(#paint8_linear_1138_4605)"/>
<path d="M666.078 931.919V1168.84L675.12 1164.32L683.259 931.919H666.078Z" fill="url(#paint9_linear_1138_4605)"/>
<path d="M1280.77 1001.76L920.857 793.295C909.149 786.476 894.672 786.508 882.994 793.378L674.296 916.151C663.311 922.613 663.346 938.511 674.358 944.925L1033.9 1153.18C1047.34 1161 1063.94 1160.96 1077.34 1153.08L1280.84 1033.37C1292.9 1026.27 1292.87 1008.8 1280.77 1001.76Z" fill="url(#paint10_linear_1138_4605)"/>
<path d="M1280.77 981.944L920.857 773.483C909.149 766.663 894.672 766.695 882.994 773.565L674.296 896.338C663.311 902.8 663.346 918.698 674.358 925.113L1033.9 1133.36C1047.34 1141.19 1063.94 1141.15 1077.34 1133.27L1280.84 1013.55C1292.9 1006.46 1292.87 988.991 1280.77 981.944Z" fill="url(#paint11_linear_1138_4605)"/>
<path d="M564.961 1312.84C564.961 1312.84 558.522 1339.11 575.43 1344.74C585.329 1348.03 594.548 1341.73 594.548 1341.73L634.657 1360.3L559.135 1429.72C559.135 1429.72 555.119 1447.39 571.799 1448.87C588.479 1450.34 596.819 1433.17 596.819 1433.17C596.819 1433.17 658.285 1380.68 669.006 1380.68C679.727 1380.68 729.276 1428.26 729.276 1428.26C729.276 1428.26 731.238 1444.94 751.352 1451.32C771.466 1457.7 777.096 1435.77 774.376 1429.24C771.656 1422.71 706.709 1359.58 706.709 1359.58L757.73 1332.62C757.73 1332.62 769.994 1334.56 783.24 1326.71C796.485 1318.86 787.82 1300.45 787.82 1300.45L675.803 1337.5L622.329 1334.68L602.176 1335.98L564.961 1312.84Z" fill="#9297A5"/>
<path d="M631.924 1364L562.489 1421.15C557.153 1425.54 558.181 1433.98 564.415 1436.97L567.384 1438.39C570.64 1439.95 574.499 1439.51 577.328 1437.27L657.781 1373.57C659.528 1372.18 661.708 1371.46 663.935 1371.53L677.131 1371.93C679.281 1372 681.345 1372.8 682.98 1374.19L756.834 1437.29C759.465 1439.53 763.115 1440.16 766.348 1438.93L768.311 1438.18C774.679 1435.74 776.449 1427.56 771.659 1422.71L714.041 1364.35C710.927 1361.19 710.424 1356.3 712.832 1352.58L718.22 1344.25C719.142 1342.82 720.431 1341.67 721.952 1340.92L782.759 1310.72C789.108 1307.57 789.853 1298.81 784.129 1294.63L779.448 1291.21C776.69 1289.2 773.06 1288.83 769.953 1290.25L713.664 1315.93C712.768 1316.34 689.197 1324.67 688.219 1324.79L664.149 1330.87C662.474 1331.06 637.42 1324.83 635.878 1324.15L581.662 1301.99C578.347 1300.53 574.487 1301.09 571.725 1303.43L568.259 1306.38C562.936 1310.9 564.191 1319.44 570.59 1322.24L628.347 1345.66C630.212 1346.48 631.764 1347.87 632.771 1349.64L634.131 1352.03C636.406 1356.03 635.475 1361.08 631.924 1364Z" fill="url(#paint12_linear_1138_4605)"/>
<path d="M703.828 1343.18V1350.43C703.828 1360.36 692.017 1368.41 677.429 1368.41C662.841 1368.41 651.031 1360.36 651.031 1350.43V1343.18H651.153C652.454 1352.3 663.703 1359.42 677.429 1359.42C691.156 1359.42 702.405 1352.3 703.705 1343.18H703.828Z" fill="url(#paint13_linear_1138_4605)"/>
<path d="M703.828 1341.42C703.828 1342.02 703.794 1342.6 703.706 1343.18C702.405 1352.3 691.156 1359.42 677.43 1359.42C663.703 1359.42 652.454 1352.3 651.153 1343.18C651.065 1342.6 651.031 1342.02 651.031 1341.42C651.031 1331.49 662.841 1323.44 677.43 1323.44C692.018 1323.44 703.828 1331.49 703.828 1341.42Z" fill="#ADB1BC"/>
<path d="M690.712 1289.39V1340.19C690.712 1345.19 684.769 1349.24 677.429 1349.24C670.089 1349.24 664.146 1345.19 664.146 1340.19V1289.39H664.208C664.863 1293.98 670.522 1297.57 677.429 1297.57C684.336 1297.57 689.995 1293.98 690.65 1289.39H690.712Z" fill="url(#paint14_linear_1138_4605)"/>
<path d="M690.712 1288.51C690.712 1288.81 690.694 1289.1 690.65 1289.39C689.995 1293.98 684.336 1297.57 677.429 1297.57C670.522 1297.57 664.863 1293.98 664.208 1289.39C664.164 1289.1 664.146 1288.81 664.146 1288.51C664.146 1283.51 670.089 1279.46 677.429 1279.46C684.769 1279.46 690.712 1283.51 690.712 1288.51Z" fill="#ADB1BC"/>
<path d="M703.828 1239.97V1281.79C703.828 1291.72 692.017 1299.77 677.429 1299.77C662.841 1299.77 651.03 1291.72 651.03 1281.79V1239.97H651.153C652.454 1249.1 663.702 1256.21 677.429 1256.21C691.156 1256.21 702.405 1249.1 703.705 1239.97H703.828Z" fill="url(#paint15_linear_1138_4605)"/>
<path d="M703.828 1238.22C703.828 1238.81 703.793 1239.39 703.705 1239.97C702.405 1249.1 691.156 1256.21 677.429 1256.21C663.703 1256.21 652.454 1249.1 651.153 1239.97C651.065 1239.39 651.031 1238.81 651.031 1238.22C651.031 1228.29 662.841 1220.24 677.429 1220.24C692.017 1220.24 703.828 1228.29 703.828 1238.22Z" fill="#ADB1BC"/>
<path d="M774.775 1252.45C774.775 1252.45 774.6 1268.54 774.775 1270.38C774.95 1272.23 798.942 1281.92 806.093 1279.61C813.245 1277.3 829.625 1233.7 831.009 1229.32C832.393 1224.93 817.859 1214.55 806.324 1224.24C794.79 1233.93 774.775 1252.45 774.775 1252.45Z" fill="#1C1E35"/>
<path d="M700.085 1064.93C701.225 1064.18 737.292 1053.54 765.991 1045.14C784.875 1039.61 804.445 1051.41 808.365 1070.7C814.311 1099.94 821.846 1137.59 822.714 1144.77C824.17 1156.82 814.416 1248.24 814.416 1248.24C814.416 1248.24 812.65 1257.12 795.054 1257.12C777.458 1257.12 771.933 1250.14 771.933 1250.14V1127.87C771.933 1119.03 765.484 1111.52 756.747 1110.17L710.232 1103.01L700.085 1064.93Z" fill="#1C1E35"/>
<path d="M592.495 1115.55C592.495 1115.55 577.849 1152.99 592.495 1166.94C607.14 1180.89 685.758 1213.47 709.131 1202.14C732.504 1190.8 818.724 1140.52 822.714 1144.77C826.705 1149.01 822.714 1265.17 822.714 1265.17C822.714 1265.17 821.792 1274.38 841.247 1270.13C860.702 1265.88 864.298 1253.13 864.298 1253.13C864.298 1253.13 886.246 1081.73 870.641 1067.56C855.036 1053.4 731.114 1100.85 731.114 1100.85L592.495 1115.55Z" fill="#3E4266"/>
<path d="M732.647 885.15C728.294 889.231 724.757 910.995 724.757 910.995L678.234 885.966L684.763 858.487C684.763 858.487 698.956 856.5 711.471 862.655C723.987 868.81 734.824 883.109 732.647 885.15Z" fill="#FFBDBD"/>
<path d="M785.771 822.094C785.771 822.094 779.574 845.382 776.072 848.74C772.57 852.098 769.246 854.073 769.246 854.073C769.246 854.073 771.876 859.373 770.861 863.056C769.847 866.74 752.964 892.444 749.709 895.023C746.454 897.602 729.209 889.298 723.723 891.645C721.021 892.8 705.623 887.068 697.445 876.588C689.019 865.789 687.846 850.213 687.846 850.213C687.846 850.213 723.823 817.391 725.516 815.922C727.209 814.452 785.771 822.094 785.771 822.094Z" fill="#FFBDBD"/>
<path d="M1000.14 992.801V986.012L840.678 903.264L750.25 952.256V959.045L909.712 1048.58L1000.14 992.801Z" fill="#999393"/>
<path d="M1000.14 986.012L840.678 896.475L750.25 952.256L909.712 1041.79L1000.14 986.012Z" fill="#B2B1B1"/>
<path d="M1000.14 986.012L1041.84 882.596L882.953 793.059L841.248 896.475L1000.14 986.012Z" fill="#CCC4C4"/>
<path d="M842.789 909.392L980.948 986.012L939.631 1009.87L801.472 933.245L842.789 909.392Z" fill="#999393"/>
<path d="M882.953 793.059L1041.84 882.596L1045.88 881.4L886.988 791.863L882.953 793.059Z" fill="#B2B1B1"/>
<path d="M1004.17 985.09L1045.88 881.675L1041.85 882.597L1000.14 986.012L1004.17 985.09Z" fill="#999393"/>
<mask id="mask7_1138_4605" style="mask-type:alpha" maskUnits="userSpaceOnUse" x="850" y="803" width="183" height="173">
<path d="M850.633 893.184L886.7 803.748L1032.46 885.884L996.392 975.321L850.633 893.184Z" fill="white"/>
<path d="M1002.73 888.936L972.146 870.76C971.076 870.124 970.542 868.729 970.958 867.659C971.374 866.589 972.59 866.233 973.659 866.869L1004.24 885.045C1005.31 885.681 1005.84 887.076 1005.43 888.146C1005.01 889.216 1003.79 889.572 1002.73 888.936Z" fill="#BEC6C6"/>
<path d="M998.884 898.815L958.202 874.635C957.133 873.999 956.598 872.605 957.014 871.535C957.43 870.465 958.646 870.109 959.716 870.745L1000.4 894.925C1001.47 895.561 1002 896.955 1001.59 898.025C1001.17 899.095 999.953 899.451 998.884 898.815Z" fill="#BEC6C6"/>
<path d="M995.041 908.694L954.36 884.514C953.29 883.878 952.756 882.484 953.172 881.414C953.588 880.344 954.804 879.988 955.873 880.624L996.554 904.804C997.624 905.44 998.158 906.834 997.742 907.904C997.326 908.974 996.11 909.33 995.041 908.694Z" fill="#BEC6C6"/>
<path d="M991.199 918.574L950.518 894.394C949.448 893.758 948.914 892.363 949.33 891.293C949.746 890.223 950.962 889.867 952.031 890.503L992.712 914.683C993.782 915.319 994.316 916.714 993.9 917.784C993.484 918.854 992.268 919.21 991.199 918.574Z" fill="#BEC6C6"/>
<path d="M979.175 923.59L946.675 904.273C945.606 903.637 945.071 902.242 945.487 901.172C945.903 900.102 947.119 899.746 948.188 900.382L980.688 919.699C981.758 920.335 982.292 921.73 981.876 922.8C981.46 923.87 980.244 924.226 979.175 923.59Z" fill="#BEC6C6"/>
<path d="M885.231 868.587L878.082 864.385L882.928 851.926L890.077 856.128L885.231 868.587Z" fill="#FC990D"/>
<path d="M897.104 875.565L889.956 871.364L901.262 842.295L908.41 846.496L897.104 875.565Z" fill="#FC990D"/>
<path d="M908.979 882.544L901.83 878.343L918.343 835.884L925.492 840.086L908.979 882.544Z" fill="#FC990D"/>
<path d="M920.853 889.523L913.704 885.321L923.066 861.25L930.215 865.451L920.853 889.523Z" fill="#FC990D"/>
</mask>
<g mask="url(#mask7_1138_4605)">
<path d="M704.838 810.823L740.904 721.387L886.666 803.523L850.597 892.959L704.838 810.823Z" fill="white"/>
<path d="M856.931 806.574L826.351 788.398C825.281 787.762 824.747 786.367 825.163 785.297C825.579 784.227 826.795 783.871 827.864 784.507L858.444 802.683C859.513 803.319 860.048 804.714 859.632 805.784C859.216 806.854 858 807.21 856.931 806.574Z" fill="#BEC6C6"/>
<path d="M853.089 816.453L812.407 792.273C811.338 791.637 810.803 790.243 811.219 789.173C811.635 788.103 812.851 787.747 813.921 788.383L854.602 812.562C855.671 813.198 856.206 814.593 855.79 815.663C855.374 816.733 854.158 817.089 853.089 816.453Z" fill="#BEC6C6"/>
<path d="M849.246 826.332L808.565 802.152C807.495 801.516 806.961 800.121 807.377 799.051C807.793 797.981 809.009 797.625 810.078 798.261L850.759 822.441C851.829 823.077 852.363 824.472 851.947 825.542C851.531 826.612 850.315 826.968 849.246 826.332Z" fill="#BEC6C6"/>
</g>
<mask id="mask8_1138_4605" style="mask-type:alpha" maskUnits="userSpaceOnUse" x="850" y="803" width="183" height="173">
<path d="M850.633 893.184L886.7 803.748L1032.46 885.884L996.392 975.321L850.633 893.184Z" fill="white"/>
<path d="M1002.73 888.936L972.146 870.76C971.076 870.124 970.542 868.729 970.958 867.659C971.374 866.589 972.59 866.233 973.659 866.869L1004.24 885.045C1005.31 885.681 1005.84 887.076 1005.43 888.146C1005.01 889.216 1003.79 889.572 1002.73 888.936Z" fill="#BEC6C6"/>
<path d="M998.884 898.815L958.202 874.635C957.133 873.999 956.598 872.605 957.014 871.535C957.43 870.465 958.646 870.109 959.716 870.745L1000.4 894.925C1001.47 895.561 1002 896.955 1001.59 898.025C1001.17 899.095 999.953 899.451 998.884 898.815Z" fill="#BEC6C6"/>
<path d="M995.041 908.694L954.36 884.514C953.29 883.878 952.756 882.484 953.172 881.414C953.588 880.344 954.804 879.988 955.873 880.624L996.554 904.804C997.624 905.44 998.158 906.834 997.742 907.904C997.326 908.974 996.11 909.33 995.041 908.694Z" fill="#BEC6C6"/>
<path d="M991.199 918.574L950.518 894.394C949.448 893.758 948.914 892.363 949.33 891.293C949.746 890.223 950.962 889.867 952.031 890.503L992.712 914.683C993.782 915.319 994.316 916.714 993.9 917.784C993.484 918.854 992.268 919.21 991.199 918.574Z" fill="#BEC6C6"/>
<path d="M979.175 923.59L946.675 904.273C945.606 903.637 945.071 902.242 945.487 901.172C945.903 900.102 947.119 899.746 948.188 900.382L980.688 919.699C981.758 920.335 982.292 921.73 981.876 922.8C981.46 923.87 980.244 924.226 979.175 923.59Z" fill="#BEC6C6"/>
<path d="M885.231 868.587L878.082 864.385L882.928 851.926L890.077 856.128L885.231 868.587Z" fill="#FC990D"/>
<path d="M897.104 875.565L889.956 871.364L901.262 842.295L908.41 846.496L897.104 875.565Z" fill="#FC990D"/>
<path d="M908.979 882.544L901.83 878.343L918.343 835.884L925.492 840.086L908.979 882.544Z" fill="#FC990D"/>
<path d="M920.853 889.523L913.704 885.321L923.066 861.25L930.215 865.451L920.853 889.523Z" fill="#FC990D"/>
</mask>
<g mask="url(#mask8_1138_4605)">
<path d="M851.174 893.491L887.24 804.055L1033 886.191L996.933 975.627L851.174 893.491Z" fill="white"/>
<path d="M1003.26 889.24L972.684 871.064C971.615 870.428 971.08 869.034 971.496 867.964C971.912 866.894 973.128 866.538 974.197 867.174L1004.78 885.35C1005.85 885.986 1006.38 887.38 1005.97 888.45C1005.55 889.52 1004.33 889.876 1003.26 889.24Z" fill="#BEC6C6"/>
<path d="M999.422 899.12L958.741 874.94C957.671 874.304 957.137 872.909 957.553 871.839C957.969 870.769 959.185 870.413 960.254 871.049L1000.94 895.229C1002 895.865 1002.54 897.26 1002.12 898.33C1001.71 899.4 1000.49 899.756 999.422 899.12Z" fill="#BEC6C6"/>
<path d="M995.579 908.998L954.898 884.819C953.829 884.183 953.294 882.788 953.71 881.718C954.126 880.648 955.342 880.292 956.411 880.928L997.093 905.108C998.162 905.744 998.697 907.138 998.281 908.208C997.865 909.278 996.649 909.634 995.579 908.998Z" fill="#BEC6C6"/>
<path d="M991.737 918.878L951.056 894.698C949.987 894.062 949.452 892.667 949.868 891.597C950.284 890.527 951.5 890.171 952.569 890.807L993.251 914.987C994.32 915.623 994.855 917.018 994.439 918.088C994.023 919.158 992.807 919.514 991.737 918.878Z" fill="#BEC6C6"/>
<path d="M979.713 923.894L947.213 904.578C946.144 903.942 945.609 902.546 946.025 901.476C946.441 900.406 947.657 900.05 948.727 900.686L981.227 920.003C982.296 920.639 982.831 922.034 982.415 923.104C981.999 924.174 980.783 924.53 979.713 923.894Z" fill="#BEC6C6"/>
<path d="M885.769 868.891L878.621 864.689L883.467 852.229L890.615 856.431L885.769 868.891Z" fill="#E85780"/>
<path d="M897.643 875.869L890.494 871.668L901.8 842.599L908.949 846.8L897.643 875.869Z" fill="#E85780"/>
<path d="M909.517 882.848L902.369 878.647L918.881 836.188L926.03 840.389L909.517 882.848Z" fill="#E85780"/>
<path d="M921.391 889.826L914.243 885.625L923.605 861.553L930.753 865.755L921.391 889.826Z" fill="#E85780"/>
</g>
<path d="M803.765 964.058C803.765 964.058 820.463 961.615 829.069 956.65C837.675 951.686 840.984 950.511 840.984 950.511C840.984 950.511 842.97 943.878 836.019 944.306C829.069 944.734 822.715 947.382 822.715 947.382C822.715 947.382 825.759 939.112 829.731 936.958C833.703 934.804 839.329 936.128 839.66 933.812C839.991 931.495 829.399 916.934 821.455 919.746C813.511 922.558 795.055 940.14 795.055 940.14C795.055 940.14 792.263 948.3 794.805 954.658C796.423 958.703 800.805 963.325 803.765 964.058Z" fill="#FFBDBD"/>
<path d="M634.853 878.231C619.525 870.851 593.783 899.883 612.477 937.035C631.171 974.188 666.528 1023.76 677.558 1024.85C683.073 1025.4 691.478 1019.7 694.284 1006.14C697.089 992.582 691.04 976.035 688.683 969.826C683.585 956.397 657.335 889.055 634.853 878.231Z" fill="#EFF1F4"/>
<path d="M674.628 1024.56C685.448 1026.97 800.461 973.669 800.461 973.669C800.461 973.669 807.274 963.552 800.461 948.974C793.648 934.396 784.431 939.074 784.431 939.074C784.431 939.074 701.473 964.655 692.261 971.264C687.923 974.376 675.237 983.655 670.807 995.988C665.662 1010.31 668.814 1023.27 674.628 1024.56Z" fill="#EFF1F4"/>
<path d="M765.943 944.302L792.659 938.772C792.659 938.772 799.941 941.719 802.589 950.507C805.237 959.294 802.589 968.863 802.589 968.863L781.737 978.492L765.943 944.302Z" fill="#EFF1F4"/>
<path d="M616.619 877.818C629.83 868.869 652.829 889.578 659.909 885.743C666.989 881.908 666.137 876.447 674.235 879.604C682.332 882.76 707.049 896.519 722.564 903.15C738.078 909.781 738.93 915.747 738.93 922.14C738.93 928.533 738.93 931.09 738.93 931.09C738.93 931.09 760.666 936.741 759.387 952.454C758.108 968.166 735.095 1098.15 735.095 1098.15C735.095 1098.15 724.441 1143.32 659.663 1139.49C594.884 1135.65 584.656 1104.12 584.656 1104.12C584.656 1104.12 602.129 913.343 604.26 904.317C606.391 895.291 616.619 877.818 616.619 877.818Z" fill="#355AB3"/>
<path d="M906.623 1007.74C906.623 1007.74 905.356 1015.97 906.804 1023.32C908.252 1030.68 916.153 1034.92 916.153 1034.92C916.153 1034.92 935.745 1034.8 941.172 1021.33C946.6 1007.86 952.414 1005.92 959.974 1004.76C967.534 1003.59 970.635 997.003 956.291 990.801C941.947 984.598 924.488 995.452 923.138 995.065C921.788 994.677 933.418 989.25 928.766 987.311C924.114 985.373 910.842 993.672 906.623 1007.74Z" fill="#FFBDBD"/>
<path d="M762.448 942.555C748.114 933.393 719.081 959.135 733.193 998.258C747.305 1037.38 776.474 1090.83 787.294 1093.23C792.704 1094.44 801.731 1089.78 806.139 1076.66C810.547 1063.53 806.523 1046.38 804.927 1039.93C801.473 1025.99 783.473 955.993 762.448 942.555Z" fill="#FFFBFF"/>
<path d="M787.295 1093.23C798.115 1095.64 913.128 1042.34 913.128 1042.34C913.128 1042.34 919.941 1032.22 913.128 1017.65C906.316 1003.07 897.098 1007.75 897.098 1007.75C897.098 1007.75 814.141 1033.33 804.928 1039.94C800.59 1043.05 787.904 1052.33 783.474 1064.66C778.329 1078.98 781.481 1091.94 787.295 1093.23Z" fill="#FFFBFF"/>
<path d="M791.204 816.898C791.204 816.898 789.404 826.535 780.433 828.113C771.463 829.69 768.203 829.951 768.203 829.951C768.203 829.951 766.391 842.031 761.858 844.145C757.325 846.259 754.168 846.268 754.168 846.268C754.168 846.268 749.052 864.384 747.468 864.675C745.883 864.967 741.305 862.432 741.305 862.432C741.305 862.432 745.935 844.14 741.752 842.907C737.568 841.674 734.01 845.087 731.323 857.245C728.635 869.402 725.051 877.653 716.662 876.046C708.272 874.44 681.313 864.186 679.689 851.945C678.064 839.704 683.763 817.613 686.144 804.505C688.526 791.397 695.738 791.21 695.738 791.21C695.738 791.21 696.586 776.091 715.413 776.863C734.24 777.636 770.409 784.958 782.127 792.434C793.846 799.909 791.204 816.898 791.204 816.898Z" fill="#2D2F4F"/>
<path d="M824.184 1267.12C824.184 1267.12 819.971 1287.6 825.175 1290.8C830.38 1294.01 836.385 1302.41 848.397 1298.41C852.671 1296.99 864.821 1286.44 874.776 1282.39C892.761 1275.07 906.945 1265.3 907.203 1262.47C907.604 1258.06 899.996 1240.45 883.181 1246.45C866.366 1252.46 862.918 1254.67 862.918 1254.67C862.918 1254.67 863.125 1259.82 848.311 1266.23C833.497 1272.63 824.184 1267.12 824.184 1267.12Z" fill="#1C1E35"/>
<path d="M521.774 1056.62L549.86 1200.5L682.708 1268.51C682.708 1268.51 651.67 1125.74 646.035 1117.1C641.515 1110.17 562.587 1066.52 531.499 1049.5C526.55 1046.79 520.693 1051.08 521.774 1056.62Z" fill="#BABECC"/>
<path d="M812.051 1189.44L766.963 1170.98C766.963 1170.98 719.453 1197.21 706.231 1200.81C693.009 1204.41 674.338 1200.81 674.338 1200.81C674.338 1200.81 670.024 1249.46 689.259 1253.99C708.493 1258.51 812.051 1189.44 812.051 1189.44Z" fill="#ADB1BC"/>
<path d="M528.738 1048.13L635.733 1114.74C640.293 1117.63 643.427 1122.3 644.365 1127.61L665.721 1248.6C668.813 1266.11 688.278 1275.33 703.784 1266.61L810.151 1206.84C812.843 1205.33 814.51 1202.48 814.51 1199.39V1193.37C814.51 1190.05 810.946 1187.93 808.025 1189.53L700.898 1248.05C692.744 1252.5 682.625 1247.64 681.006 1238.49L659.449 1116.69C658.539 1111.54 655.473 1107.03 651.025 1104.3L544.894 1040.31L528.738 1048.13Z" fill="url(#paint16_linear_1138_4605)"/>
</g>
</g>
<defs>
<linearGradient id="paint0_linear_1138_4605" x1="1158.8" y1="1509.32" x2="804.139" y2="791.989" gradientUnits="userSpaceOnUse">
<stop stop-color="#F5F6F8"/>
<stop offset="0.5" stop-color="#ECEEF1"/>
<stop offset="1" stop-color="#E4E6EB"/>
</linearGradient>
<linearGradient id="paint1_linear_1138_4605" x1="1522.81" y1="433.325" x2="1576.68" y2="433.325" gradientUnits="userSpaceOnUse">
<stop stop-color="#E85780"/>
<stop offset="1" stop-color="#355AB3" stop-opacity="0.65"/>
</linearGradient>
<linearGradient id="paint2_linear_1138_4605" x1="1262.81" y1="1067.99" x2="1491.77" y2="1067.99" gradientUnits="userSpaceOnUse">
<stop stop-color="#C6C9D4"/>
<stop offset="0.5" stop-color="#DDDFE5"/>
<stop offset="1" stop-color="#F4F5F7"/>
</linearGradient>
<linearGradient id="paint3_linear_1138_4605" x1="1354.8" y1="1059.32" x2="1407.6" y2="1059.32" gradientUnits="userSpaceOnUse">
<stop stop-color="#C6C9D4"/>
<stop offset="0.5" stop-color="#DDDFE5"/>
<stop offset="1" stop-color="#F4F5F7"/>
</linearGradient>
<linearGradient id="paint4_linear_1138_4605" x1="1367.47" y1="1022.65" x2="1394.04" y2="1022.65" gradientUnits="userSpaceOnUse">
<stop stop-color="#C6C9D4"/>
<stop offset="0.5" stop-color="#DDDFE5"/>
<stop offset="1" stop-color="#F4F5F7"/>
</linearGradient>
<linearGradient id="paint5_linear_1138_4605" x1="1354.81" y1="973.32" x2="1407.6" y2="973.32" gradientUnits="userSpaceOnUse">
<stop stop-color="#C6C9D4"/>
<stop offset="0.5" stop-color="#DDDFE5"/>
<stop offset="1" stop-color="#F4F5F7"/>
</linearGradient>
<linearGradient id="paint6_linear_1138_4605" x1="-5864.77" y1="794.657" x2="-6061.72" y2="794.657" gradientUnits="userSpaceOnUse">
<stop stop-color="#878AA0"/>
<stop offset="0.5" stop-color="#9FA3AE"/>
<stop offset="0.99" stop-color="#B7BCBC"/>
</linearGradient>
<linearGradient id="paint7_linear_1138_4605" x1="1070.81" y1="1274.66" x2="1035.6" y2="1266.99" gradientUnits="userSpaceOnUse">
<stop offset="0.01" stop-color="#DFE1E5"/>
<stop offset="0.51" stop-color="#C6C8D1"/>
<stop offset="1" stop-color="#ACB0BC"/>
</linearGradient>
<linearGradient id="paint8_linear_1138_4605" x1="1296.14" y1="1139.99" x2="1260.93" y2="1132.32" gradientUnits="userSpaceOnUse">
<stop offset="0.01" stop-color="#DFE1E5"/>
<stop offset="0.51" stop-color="#C6C8D1"/>
<stop offset="1" stop-color="#ACB0BC"/>
</linearGradient>
<linearGradient id="paint9_linear_1138_4605" x1="689.472" y1="1053.32" x2="654.264" y2="1045.66" gradientUnits="userSpaceOnUse">
<stop offset="0.01" stop-color="#DFE1E5"/>
<stop offset="0.51" stop-color="#C6C8D1"/>
<stop offset="1" stop-color="#ACB0BC"/>
</linearGradient>
<linearGradient id="paint10_linear_1138_4605" x1="1190.14" y1="1019.32" x2="810.091" y2="936.614" gradientUnits="userSpaceOnUse">
<stop stop-color="#9CA1AF"/>
<stop offset="0.5" stop-color="#C0C4CD"/>
<stop offset="1" stop-color="#E4E6EB"/>
</linearGradient>
<linearGradient id="paint11_linear_1138_4605" x1="972.805" y1="741.323" x2="1116.13" y2="1360.05" gradientUnits="userSpaceOnUse">
<stop stop-color="#E5E5E5"/>
<stop offset="0.5" stop-color="#F2F2F2"/>
<stop offset="1" stop-color="white"/>
</linearGradient>
<linearGradient id="paint12_linear_1138_4605" x1="558.808" y1="1363.99" x2="787.771" y2="1363.99" gradientUnits="userSpaceOnUse">
<stop stop-color="#C6C9D4"/>
<stop offset="0.5" stop-color="#DDDFE5"/>
<stop offset="1" stop-color="#F4F5F7"/>
</linearGradient>
<linearGradient id="paint13_linear_1138_4605" x1="650.806" y1="1355.32" x2="703.604" y2="1355.32" gradientUnits="userSpaceOnUse">
<stop stop-color="#C6C9D4"/>
<stop offset="0.5" stop-color="#DDDFE5"/>
<stop offset="1" stop-color="#F4F5F7"/>
</linearGradient>
<linearGradient id="paint14_linear_1138_4605" x1="664.139" y1="1318.66" x2="690.704" y2="1318.66" gradientUnits="userSpaceOnUse">
<stop stop-color="#C6C9D4"/>
<stop offset="0.5" stop-color="#DDDFE5"/>
<stop offset="1" stop-color="#F4F5F7"/>
</linearGradient>
<linearGradient id="paint15_linear_1138_4605" x1="650.806" y1="1269.32" x2="703.604" y2="1269.32" gradientUnits="userSpaceOnUse">
<stop stop-color="#C6C9D4"/>
<stop offset="0.5" stop-color="#DDDFE5"/>
<stop offset="1" stop-color="#F4F5F7"/>
</linearGradient>
<linearGradient id="paint16_linear_1138_4605" x1="528.806" y1="1154.65" x2="814.578" y2="1154.65" gradientUnits="userSpaceOnUse">
<stop stop-color="#C6C9D4"/>
<stop offset="0.5" stop-color="#DDDFE5"/>
<stop offset="1" stop-color="#F4F5F7"/>
</linearGradient>
<clipPath id="clip0_1138_4605">
<rect width="2000" height="1833.33" fill="white" transform="translate(0.139648 0.660156)"/>
</clipPath>
</defs>
</svg>
