<svg xmlns="http://www.w3.org/2000/svg" height="800" width="1200" fill="none" viewBox="-11.06667 -8 95.91114 48"><path fill="#ff7227" d="M65.2056 29.8306c-.8173.9474-2.4763.8053-2.7488-.5801-.1301-.687.0592-1.5158.3555-2.0961.6635-1.2671 1.8602-2.3091 3.2229-2.6525 0 .7816 0 1.8118-.0237 2.6052-.024.8763-.2133 2.0248-.8059 2.7235zM52.0188 11.1092c.7584.0473 1.3627.8761 1.1612 2.2853-.2488 1.6698-1.6351 3.4577-3.2108 3.8603-.249-.592-.3673-1.7999-.2253-2.984.2608-2.1671 1.3745-3.2091 2.2749-3.1616zm-29.537 8.0758c-1.173-1.5631-1.1257-3.4577-.7582-5.2576 1.1491 2.5814 4.2179 3.0315 6.1135 2.6525-.2487 1.9894-1.2917 3.7301-3.0923 3.7301-1.0071.0118-1.7419-.4263-2.263-1.125zm4.1468-7.2945c.5781.5899.9681 1.4498 1.1466 2.4042.0011-.0001.0027.0116.0027.0116-.0007-.0039-.0018-.0077-.0027-.0116-1.326.1889-2.6046-.0598-3.5399-.7819-.6752-.5328-.8531-1.3735-.5687-1.8827.4145-.7341 1.6588-1.0539 2.962.2604zm-18.0563-9.71c.8173-.959 2.4761-.8053 2.7368.5803.1302.6749-.0475 1.5038-.3435 2.084-.6638 1.267-1.8604 2.309-3.223 2.6643 0-.7932-.0119-1.8117.024-2.605.0235-.8763.2132-2.0368.8057-2.7236zm60.4841 20.5333c.0117-4.1208 0-8.2417 0-12.3626 0-1.0183-2.9265-1.0777-3.0212-.0473 0 .4144 0 .8407-.012 1.2551-.0472 2.2618-1.1254 6.4892-2.9145 8.0286-.4858.4146-.9243.4382-1.2321.2131-.2727-.2013-.3439-.7103-.3439-1.1485v-.5684c0-2.5459.012-5.1748 0-7.7208 0-1.0184-2.9264-1.0895-3.0212-.0591 0 2.3682 0 4.6656.012 7.0102-1.9314 3.0788-6.398 4.5235-8.2463.8762 1.1493.4382 2.3695.225 3.199-.2131 1.4337-.7579 2.5236-2.013 2.7368-4.0024.2014-5.8262-7.4996-6.6194-9.2178-.6868-.2842.9828-.4382 2.0367-.4026 3.0669.0353.9828.2368 1.8946.5804 2.6999-.6281.6157-1.3507 1.042-2.0733 1.0184-.9481-.0356-.853-1.2078-.853-1.8829v-4.4406c0-.5328 0-1.0657-.0476-1.5866-.1538-1.5513-1.3388-2.7829-2.9974-2.8896-2.358-.0354-4.0166 2.1553-4.8341 4.5592-.0117-1.3381 0-2.1316 0-3.4815-.0117-1.0066-2.7249-1.0777-3.033-.0119-.391 1.35-1.6707 2.4039-2.8674 3.0314-.3671-.888-.8291-1.705-1.4689-2.4036-2.6305-2.854-6.4335-2.3328-8.6612.0235-1.7653 1.8711-2.2982 5.2459-1.3505 7.6141-.699.8291-1.6586 1.504-2.5117 1.4685-.4267-.0237-.6636-.2725-.7703-.6632-.1067-.379-.0828-.8288-.0828-1.2197 0-1.4802-.012-2.9604 0-4.4406 0-.5328 0-1.0657-.0473-1.5866-.1542-1.5513-1.0665-2.7948-2.7962-2.9012-2.974-.1305-4.1706 2.7472-5.0476 5.1154V9.321c.6281-.1066 1.2325-.2606 1.8365-.4381C16.1193 7 14.8515.12 9.9703.0017c-3.2938-.071-5.2489 2.0959-5.225 5.3878V7.521c-1.1849-.1775-2.0736-1.7169-2.571-2.7116-.0713-.154-.1424-.308-.2133-.462-.0592-.1539-.2251-.2366-.3794-.1893-.1301.0354-.2604.0829-.3909.1302-.4737.2132-.865.5803-1.0543 1.0658-.3435.8644 0 1.7881.604 2.4393.9955 1.0421 2.5832 1.421 3.981 1.492-.0119 4.1091 0 8.2063 0 12.3153.0474.5803.8414.7343 1.3034.746.4859.0119 1.5402-.1421 1.5522-.8051l.0355-.5093c.2014-1.8235 1.9547-9.118 4.1703-9.1299.5452 0 .8178.3553.8178.8882v6.5011c0 2.013 1.1373 3.3629 3.1989 3.3629 1.5995.0119 3.0447-1.1487 3.9097-2.5932.1184.1539.2133.3196.3436.4617 1.1255 1.3145 2.7843 2.1553 4.6801 2.1671 4.1347-.0593 6.2555-3.6117 6.1018-7.105.9596-.5328 1.8246-1.2198 2.4878-2.0724v8.0879c.0475.5803.877.7343 1.3392.746.4855.0119 1.5402-.1421 1.5402-.8051l.0473-.5093.142-1.3499c.2135-1.8828 1.6234-7.7681 4.0285-7.78.5329 0 .8058.3553.8058.8882v6.5011c0 2.013 1.1374 3.3629 3.2105 3.3629 1.4338.0119 2.737-.9236 3.6138-2.1551 1.161 1.4328 2.9385 2.2735 5.0708 2.2735 2.5002 0 4.3127-1.1012 5.5213-2.8775.2725 1.5277 1.09 2.7354 3.0925 2.7591 2.0731.0119 3.6491-2.8774 4.3008-4.6183v4.6539c-.6164.1065-1.2204.2605-1.8245.438-6.5521 1.8711-5.2963 8.7628-.4149 8.8695 3.3056.0829 5.2486-2.0842 5.2369-5.3761 0-.5565-.0119-1.5986 0-2.1434 1.1729.1777 2.0733 1.729 2.5592 2.7237.0828.1539.154.3077.2133.4617.071.154.2249.225.3909.1894.1303-.0354.2606-.0827.379-.1421.4859-.213.877-.5682 1.0665-1.0656.3436-.8644 0-1.7762-.6162-2.4276-.9832-1.0538-2.583-1.421-3.969-1.5039z" clip-rule="evenodd" fill-rule="evenodd"/></svg>