<svg xmlns="http://www.w3.org/2000/svg" version="1.1" xmlns:xlink="http://www.w3.org/1999/xlink" xmlns:svgjs="http://svgjs.dev/svgjs" width="1000" height="194" viewBox="0 0 1000 194"><g transform="matrix(1,0,0,1,-0.6060606060606233,-0.5748798516856937)"><svg viewBox="0 0 396 77" data-background-color="#ffffff" preserveAspectRatio="xMidYMid meet" height="194" width="1000" xmlns="http://www.w3.org/2000/svg" xmlns:xlink="http://www.w3.org/1999/xlink"><g id="tight-bounds" transform="matrix(1,0,0,1,0.2400000000000091,0.22817396175153704)"><svg viewBox="0 0 395.52 76.54365207649691" height="76.54365207649691" width="395.52"><g><svg viewBox="0 0 494.4796829138121 95.69498586127465" height="76.54365207649691" width="395.52"><g transform="matrix(1,0,0,1,98.95968291381203,13.225573299206559)"><svg viewBox="0 0 395.52000000000004 69.24383926286153" height="69.24383926286153" width="395.52000000000004"><g id="textblocktransform"><svg viewBox="0 0 395.52000000000004 69.24383926286153" height="69.24383926286153" width="395.52000000000004" id="textblock"><g><svg viewBox="0 0 395.52000000000004 69.24383926286153" height="69.24383926286153" width="395.52000000000004"><g transform="matrix(1,0,0,1,0,0)"><svg width="395.52000000000004" viewBox="1.27 -32.91 190.76 33.4" height="69.24383926286153" data-palette-color="#ef86c1"><g class="wordmark-text-0" data-fill-palette-color="primary" id="text-0"><path d="M8.59-32.18L8.59-32.18Q10.01-32.18 11.69-32.25 13.38-32.32 14.84-32.32L14.84-32.32Q17.72-32.32 20.26-31.54 22.8-30.76 24.71-28.64 26.61-26.51 26.61-23.39L26.61-23.39Q26.61-19.43 23.56-16.55 20.51-13.67 16.16-13.67L16.16-13.67Q15.38-13.67 14.6-13.92 13.82-14.16 13.43-14.38 13.04-14.6 12.94-14.75L12.94-14.75Q12.74-15.04 12.7-15.82 12.65-16.6 12.89-16.6L12.89-16.6Q13.53-16.21 15.09-16.21L15.09-16.21Q19.19-16.21 19.19-22.85L19.19-22.85Q19.19-29.54 14.7-29.54L14.7-29.54Q12.99-29.54 12.45-29.15L12.45-29.15Q11.87-28.71 11.87-24.37L11.87-24.37 11.87-6.88Q11.87-4.39 12.21-2.88L12.21-2.88Q12.35-2.29 13.82-1.95 15.28-1.61 16.02-1.61L16.02-1.61Q16.21-1.61 16.21-0.68L16.21-0.68Q16.21-0.1 16.11 0.2L16.11 0.2Q10.25-0.1 8.64-0.1L8.64-0.1 1.51 0.2Q1.32 0 1.32-0.63L1.32-0.63Q1.32-1.61 1.51-1.61L1.51-1.61Q2.1-1.61 3.34-1.95 4.59-2.29 4.74-2.69L4.74-2.69Q5.03-3.81 5.03-6.98L5.03-6.98 5.03-25.44Q5.03-28.13 4.74-29.25L4.74-29.25Q4.59-29.64 3.3-30.13 2-30.62 1.46-30.62L1.46-30.62Q1.27-30.62 1.27-31.49L1.27-31.49Q1.27-32.28 1.42-32.42L1.42-32.42Q5.81-32.18 8.59-32.18ZM44.09-29.83L44.09-29.83Q41.5-29.83 39.79-27.95 38.08-26.07 37.42-23.34 36.77-20.61 36.77-17.09L36.77-17.09Q36.77-14.6 37.23-12.18 37.69-9.77 38.64-7.45 39.6-5.13 41.4-3.69 43.21-2.25 45.6-2.25L45.6-2.25Q49.27-2.25 51.1-5.96 52.93-9.67 52.93-15.09L52.93-15.09Q52.93-17.77 52.51-20.19 52.1-22.61 51.17-24.88 50.24-27.15 48.44-28.49 46.63-29.83 44.09-29.83ZM33.76-4.35Q29.15-9.18 29.15-16.02 29.15-22.85 33.76-27.71 38.38-32.57 44.82-32.57 51.27-32.57 55.91-27.71 60.54-22.85 60.54-16.02 60.54-9.18 55.91-4.35 51.27 0.49 44.82 0.49 38.38 0.49 33.76-4.35ZM76.56-29.54L76.56-29.54Q74.85-29.54 74.31-29.15 73.77-28.76 73.73-24.37L73.73-24.37 73.73-19.09Q73.73-18.36 73.9-17.92 74.07-17.48 74.41-17.29 74.75-17.09 75.04-17.04 75.34-16.99 75.78-16.99L75.78-16.99 77.09-16.99Q79-16.99 80.05-18.65 81.1-20.31 81.1-23.05L81.1-23.05Q81.1-29.54 76.56-29.54ZM77.29-32.23L77.29-32.23Q78.95-32.23 80.76-31.81 82.56-31.4 84.37-30.52 86.18-29.64 87.35-27.95 88.52-26.27 88.52-24.02L88.52-24.02Q88.52-20.75 86.62-18.31 84.71-15.87 82.51-15.14L82.51-15.14Q82.12-14.99 82.37-14.6L82.37-14.6Q83.44-12.79 84.2-11.6 84.96-10.4 86.01-8.96 87.06-7.52 87.69-6.59L87.69-6.59Q88.91-4.79 90.89-3.2 92.87-1.61 94.72-1.61L94.72-1.61Q94.92-1.37 94.92-0.73L94.92-0.73Q94.92-0.2 94.72 0.24L94.72 0.24Q94.04 0.34 93.01 0.34L93.01 0.34Q90.62 0.34 88.64-0.12 86.66-0.59 85.47-1.17 84.27-1.76 83.08-2.93 81.88-4.1 81.29-4.88 80.71-5.66 79.73-7.18L79.73-7.18Q79.24-7.96 78.46-9.18 77.68-10.4 77.22-11.11 76.75-11.82 76.22-12.6 75.68-13.38 75.31-13.77 74.95-14.16 74.7-14.26L74.7-14.26Q74.56-14.31 74.16-14.31L74.16-14.31Q73.73-14.31 73.73-13.53L73.73-13.53 73.73-6.88Q73.73-4.39 74.07-2.88L74.07-2.88Q74.21-2.29 75.68-1.95 77.14-1.61 77.88-1.61L77.88-1.61Q78.07-1.61 78.07-0.68L78.07-0.68Q78.07-0.1 77.97 0.2L77.97 0.2Q72.11-0.1 70.5-0.1L70.5-0.1 63.37 0.2Q63.18 0 63.18-0.63L63.18-0.63Q63.18-1.61 63.37-1.61L63.37-1.61Q63.96-1.61 65.2-1.95 66.45-2.29 66.6-2.69L66.6-2.69Q66.89-3.81 66.89-6.98L66.89-6.98 66.89-25.44Q66.89-28.13 66.6-29.25L66.6-29.25Q66.45-29.64 65.16-30.13 63.86-30.62 63.33-30.62L63.33-30.62Q63.13-30.62 63.13-31.49L63.13-31.49Q63.13-32.28 63.28-32.42L63.28-32.42Q67.77-32.18 70.45-32.18L70.45-32.18Q71.77-32.18 73.8-32.2 75.83-32.23 77.29-32.23ZM107.29-32.23Q110.59-32.08 112.64-32.08 114.69-32.08 118.01-32.23 121.33-32.37 123.38-32.37L123.38-32.37Q124.6-32.37 126.75-32.91L126.75-32.91 127.68-24.9Q127.34-24.56 126.26-24.56L126.26-24.56Q125.82-24.56 125.77-24.8L125.77-24.8Q124.55-29.64 120.55-29.64L120.55-29.64Q116.59-29.64 116.4-28.76L116.4-28.76Q116.01-27.39 116.01-24.41L116.01-24.41 116.01-6.79Q116.01-4.35 116.4-2.83L116.4-2.83Q116.5-2.49 117.74-2.05 118.99-1.61 119.43-1.61L119.43-1.61Q119.62-1.61 119.62-0.68L119.62-0.68Q119.62-0.1 119.52 0.2L119.52 0.2Q119.18 0.2 116.59 0 114.01-0.2 112.74-0.2L112.74-0.2Q111.42-0.2 108.88-0.02 106.34 0.15 105.66 0.2L105.66 0.2Q105.46 0 105.46-0.59L105.46-0.59Q105.46-1.61 105.61-1.61L105.61-1.61Q106.14-1.61 107.41-2.03 108.68-2.44 108.83-2.83L108.83-2.83Q109.17-4.15 109.17-6.59L109.17-6.59 109.17-24.27Q109.17-28.08 108.78-28.76L108.78-28.76Q108.64-29.05 108.51-29.17 108.39-29.3 107.46-29.47 106.54-29.64 104.78-29.64L104.78-29.64Q102.78-29.64 101.51-28.54 100.24-27.44 99.55-24.85L99.55-24.85Q99.5-24.61 99.06-24.61L99.06-24.61Q97.99-24.61 97.65-24.95L97.65-24.95 98.58-32.91Q100.72-32.37 101.95-32.37L101.95-32.37Q104-32.37 107.29-32.23ZM149.6-1.61L149.6-1.61Q150.67-1.61 151.8-2.08 152.92-2.54 152.92-3.32L152.92-3.32Q152.92-3.42 151.7-6.59L151.7-6.59 150.23-10.16Q150.04-10.35 149.89-10.35L149.89-10.35Q148.96-10.4 145.2-10.4L145.2-10.4Q141.98-10.4 140.27-10.35L140.27-10.35Q140.08-10.35 139.93-10.11L139.93-10.11Q139.93-10.11 138.32-6.4L138.32-6.4Q137.34-4.2 137.34-3.42 137.34-2.64 138.22-2.2 139.1-1.76 139.76-1.68 140.42-1.61 140.91-1.61L140.91-1.61Q141.05-1.56 141.05-0.83 141.05-0.1 140.96 0.2L140.96 0.2Q140.32 0.15 138.39-0.02 136.46-0.2 135.24-0.2 134.02-0.2 132.31-0.02 130.61 0.15 129.68 0.2L129.68 0.2Q129.48 0 129.48-0.54L129.48-0.54Q129.48-1.56 129.58-1.56L129.58-1.56Q130.17-1.56 131.53-2.08 132.9-2.59 133.24-3.13L133.24-3.13Q133.63-3.71 134.05-4.57 134.46-5.42 134.71-5.96L134.71-5.96 134.95-6.54 145.74-31.35Q146.28-32.62 147.55-32.62L147.55-32.62Q148.28-32.62 148.72-31.98L148.72-31.98 158.73-7.23Q159.66-4.98 160.34-3.22L160.34-3.22Q160.63-2.44 161.95-2.03 163.27-1.61 163.95-1.61L163.95-1.61Q164.15-1.61 164.15-0.78 164.15 0.05 164.05 0.2L164.05 0.2Q163.86 0.2 161.05 0 158.24-0.2 156.97-0.2L156.97-0.2Q156.63-0.2 149.6 0.2L149.6 0.2Q149.4 0 149.4-0.81 149.4-1.61 149.6-1.61ZM141.59-13.48L141.59-13.48Q143.06-13.33 145.2-13.33L145.2-13.33Q147.16-13.33 148.67-13.43L148.67-13.43 148.82-13.67 145.3-22.41 141.49-13.67Q141.49-13.48 141.59-13.48ZM172.64-32.03L172.64-32.03Q173.62-32.03 179.48-32.32L179.48-32.32Q179.63-31.88 179.63-31.45L179.63-31.45Q179.63-30.52 179.43-30.52L179.43-30.52Q178.99-30.52 177.67-30.1 176.35-29.69 176.26-29.35L176.26-29.35Q175.92-28.03 175.92-25.44L175.92-25.44 175.92-6.93Q175.92-4.54 176.31-3.42L176.31-3.42Q176.55-2.64 179.63-2.64L179.63-2.64 180.9-2.64Q183.92-2.64 186.36-3.91L186.36-3.91Q187.19-4.35 188.24-5.57 189.29-6.79 189.88-8.3L189.88-8.3Q189.98-8.59 190.56-8.59L190.56-8.59Q191.74-8.59 192.03-8.3L192.03-8.3Q189.64-1.56 189.39 0.1L189.39 0.1Q186.61 0.1 180.7 0 174.79-0.1 172.69-0.1L172.69-0.1 165.56 0.2Q165.37 0 165.37-0.63L165.37-0.63Q165.37-1.61 165.56-1.61L165.56-1.61Q166.15-1.61 167.39-1.95 168.64-2.29 168.79-2.69L168.79-2.69Q169.08-3.81 169.08-6.98L169.08-6.98 169.08-25.63Q169.08-28.61 168.69-29.3L168.69-29.3Q168.44-29.69 167.32-30.1 166.2-30.52 165.66-30.52L165.66-30.52Q165.47-30.52 165.47-31.35L165.47-31.35Q165.47-32.23 165.56-32.32L165.56-32.32Q172.3-32.03 172.64-32.03Z" fill="#ef86c1" data-fill-palette-color="primary"></path></g></svg></g></svg></g></svg></g></svg></g><g><svg viewBox="0 0 82.61287431599273 95.69498586127465" height="95.69498586127465" width="82.61287431599273"><g><svg xmlns="http://www.w3.org/2000/svg" xmlns:xlink="http://www.w3.org/1999/xlink" version="1.1" x="0" y="0" viewBox="9.638 3.247 80.72399999999999 93.507" enable-background="new 0 0 100 100" xml:space="preserve" height="95.69498586127465" width="82.61287431599273" class="icon-icon-0" data-fill-palette-color="accent" id="icon-0"><g fill="#d498ca" data-fill-palette-color="accent"><g fill="#d498ca" data-fill-palette-color="accent"><polygon points="36.703,11.011 9.638,26.636 9.638,38.757 36.703,23.131 63.767,38.757 63.767,26.636   " fill="#d498ca" data-fill-palette-color="accent"></polygon></g><g fill="#d498ca" data-fill-palette-color="accent"><polygon points="63.298,89.092 36.233,73.467 36.233,61.348 63.298,76.973 90.362,61.348 90.362,73.467   " fill="#d498ca" data-fill-palette-color="accent"></polygon></g><g fill="#d498ca" data-fill-palette-color="accent"><polygon points="9.638,42.012 36.703,26.386 47.198,32.446 20.134,48.072 20.134,79.324 9.638,73.264   " fill="#d498ca" data-fill-palette-color="accent"></polygon></g><g fill="#d498ca" data-fill-palette-color="accent"><polygon points="77.083,18.872 50.018,3.247 39.522,9.307 66.586,24.932 66.586,56.184 77.083,50.124   " fill="#d498ca" data-fill-palette-color="accent"></polygon></g><g fill="#d498ca" data-fill-palette-color="accent"><polygon points="23.01,81.127 23.011,49.876 33.507,43.816 33.507,75.068 60.571,90.693 50.075,96.754   " fill="#d498ca" data-fill-palette-color="accent"></polygon></g><g fill="#d498ca" data-fill-palette-color="accent"><polygon points="90.362,58.092 90.362,26.84 79.866,20.78 79.866,52.031 52.802,67.658 63.298,73.719   " fill="#d498ca" data-fill-palette-color="accent"></polygon></g></g></svg></g></svg></g></svg></g><defs></defs></svg><rect width="395.52" height="76.54365207649691" fill="none" stroke="none" visibility="hidden"></rect></g></svg></g></svg>